<svg width="23" height="23" viewBox="0 0 23 23" fill="none" xmlns="http://www.w3.org/2000/svg">
<g filter="url(#filter0_d_14_561)">
<mask id="path-1-inside-1_14_561" fill="white">
<path d="M11.9688 5.49996C11.9688 5.30218 12.0237 5.10884 12.1267 4.94439C12.2298 4.77994 12.3762 4.65177 12.5475 4.57608C12.7188 4.50039 12.9073 4.48059 13.0891 4.51918C13.271 4.55776 13.4381 4.653 13.5692 4.79285C13.7003 4.93271 13.7896 5.11089 13.8257 5.30487C13.8619 5.49885 13.8433 5.69992 13.7724 5.88264C13.7014 6.06537 13.5813 6.22155 13.4271 6.33143C13.2729 6.44131 13.0917 6.49996 12.9062 6.49996C12.6576 6.49996 12.4192 6.3946 12.2433 6.20707C12.0675 6.01953 11.9688 5.76518 11.9688 5.49996ZM9.625 4.49996C9.43958 4.49996 9.25832 4.55861 9.10415 4.66849C8.94998 4.77837 8.82982 4.93455 8.75886 5.11728C8.68791 5.3 8.66934 5.50107 8.70551 5.69505C8.74169 5.88903 8.83098 6.06721 8.96209 6.20707C9.0932 6.34692 9.26025 6.44216 9.4421 6.48075C9.62396 6.51933 9.81246 6.49953 9.98377 6.42384C10.1551 6.34815 10.3015 6.21998 10.4045 6.05553C10.5075 5.89108 10.5625 5.69774 10.5625 5.49996C10.5625 5.23474 10.4637 4.98039 10.2879 4.79285C10.1121 4.60532 9.87364 4.49996 9.625 4.49996ZM16.6562 8.99996C16.6564 9.43411 16.6104 9.86688 16.5191 10.29L17.6412 10.8125C17.7259 10.8519 17.8024 10.9088 17.8664 10.9798C17.9304 11.0509 17.9807 11.1346 18.0144 11.2264C18.0481 11.3182 18.0645 11.4161 18.0627 11.5146C18.0609 11.6131 18.0409 11.7103 18.0039 11.8006C17.9669 11.8909 17.9136 11.9725 17.847 12.0408C17.7804 12.1091 17.7019 12.1627 17.6158 12.1987C17.5298 12.2346 17.438 12.2521 17.3456 12.2502C17.2533 12.2482 17.1622 12.2269 17.0775 12.1875L16.0229 11.6968C15.5636 12.6181 14.878 13.3886 14.0396 13.926C13.2011 14.4633 12.2414 14.7472 11.2633 14.7472C10.2851 14.7472 9.32541 14.4633 8.48697 13.926C7.64852 13.3886 6.96295 12.6181 6.50371 11.6968L5.44902 12.1875C5.36438 12.2269 5.27328 12.2482 5.18092 12.2502C5.08856 12.2521 4.99674 12.2346 4.91072 12.1987C4.8247 12.1627 4.74616 12.1091 4.67957 12.0408C4.61299 11.9725 4.55967 11.8909 4.52266 11.8006C4.48564 11.7103 4.46567 11.6131 4.46386 11.5146C4.46206 11.4161 4.47847 11.3182 4.51215 11.2264C4.54583 11.1346 4.59612 11.0509 4.66015 10.9798C4.72419 10.9088 4.80071 10.8519 4.88535 10.8125L6.00742 10.29C5.91771 9.86668 5.87328 9.43392 5.875 8.99996V8.74996H4.70312C4.51664 8.74996 4.3378 8.67094 4.20594 8.53029C4.07408 8.38964 4 8.19887 4 7.99996C4 7.80105 4.07408 7.61028 4.20594 7.46963C4.3378 7.32898 4.51664 7.24996 4.70312 7.24996H5.875V6.99996C5.87482 6.56581 5.92082 6.13305 6.01211 5.70996L4.89004 5.18746C4.7191 5.10773 4.58485 4.95883 4.51683 4.77352C4.44882 4.58821 4.4526 4.38167 4.52734 4.19934C4.60209 4.017 4.74168 3.8738 4.91541 3.80125C5.08914 3.7287 5.28277 3.73273 5.45371 3.81246L6.5084 4.30309C6.96764 3.38187 7.65321 2.61129 8.49165 2.07393C9.3301 1.53657 10.2898 1.25269 11.268 1.25269C12.2461 1.25269 13.2058 1.53657 14.0443 2.07393C14.8827 2.61129 15.5683 3.38187 16.0275 4.30309L17.0822 3.81246C17.1669 3.77298 17.258 3.75167 17.3503 3.74975C17.4427 3.74783 17.5345 3.76533 17.6205 3.80125C17.7065 3.83718 17.7851 3.89082 17.8517 3.95912C17.9183 4.02743 17.9716 4.10905 18.0086 4.19934C18.0456 4.28962 18.0656 4.38679 18.0674 4.48531C18.0692 4.58383 18.0528 4.68177 18.0191 4.77352C17.9854 4.86528 17.9351 4.94906 17.8711 5.02008C17.8071 5.09111 17.7305 5.14798 17.6459 5.18746L16.5238 5.70996C16.6135 6.13324 16.658 6.566 16.6562 6.99996V7.24996H17.8281C18.0146 7.24996 18.1934 7.32898 18.3253 7.46963C18.4572 7.61028 18.5312 7.80105 18.5312 7.99996C18.5312 8.19887 18.4572 8.38964 18.3253 8.53029C18.1934 8.67094 18.0146 8.74996 17.8281 8.74996H16.6562V8.99996ZM7.28125 7.24996H15.25V6.99996C15.25 5.87279 14.8302 4.79179 14.083 3.99476C13.3358 3.19773 12.3223 2.74996 11.2656 2.74996C10.2089 2.74996 9.19546 3.19773 8.44825 3.99476C7.70103 4.79179 7.28125 5.87279 7.28125 6.99996V7.24996ZM10.5625 13.1825V8.74996H7.28125V8.99996C7.28257 9.99659 7.61173 10.9611 8.21135 11.7254C8.81097 12.4897 9.64303 13.0054 10.5625 13.1825ZM15.25 8.99996V8.74996H11.9688V13.1825C12.8882 13.0054 13.7203 12.4897 14.3199 11.7254C14.9195 10.9611 15.2487 9.99659 15.25 8.99996Z"/>
</mask>
<path d="M11.9688 5.49996C11.9688 5.30218 12.0237 5.10884 12.1267 4.94439C12.2298 4.77994 12.3762 4.65177 12.5475 4.57608C12.7188 4.50039 12.9073 4.48059 13.0891 4.51918C13.271 4.55776 13.4381 4.653 13.5692 4.79285C13.7003 4.93271 13.7896 5.11089 13.8257 5.30487C13.8619 5.49885 13.8433 5.69992 13.7724 5.88264C13.7014 6.06537 13.5813 6.22155 13.4271 6.33143C13.2729 6.44131 13.0917 6.49996 12.9062 6.49996C12.6576 6.49996 12.4192 6.3946 12.2433 6.20707C12.0675 6.01953 11.9688 5.76518 11.9688 5.49996ZM9.625 4.49996C9.43958 4.49996 9.25832 4.55861 9.10415 4.66849C8.94998 4.77837 8.82982 4.93455 8.75886 5.11728C8.68791 5.3 8.66934 5.50107 8.70551 5.69505C8.74169 5.88903 8.83098 6.06721 8.96209 6.20707C9.0932 6.34692 9.26025 6.44216 9.4421 6.48075C9.62396 6.51933 9.81246 6.49953 9.98377 6.42384C10.1551 6.34815 10.3015 6.21998 10.4045 6.05553C10.5075 5.89108 10.5625 5.69774 10.5625 5.49996C10.5625 5.23474 10.4637 4.98039 10.2879 4.79285C10.1121 4.60532 9.87364 4.49996 9.625 4.49996ZM16.6562 8.99996C16.6564 9.43411 16.6104 9.86688 16.5191 10.29L17.6412 10.8125C17.7259 10.8519 17.8024 10.9088 17.8664 10.9798C17.9304 11.0509 17.9807 11.1346 18.0144 11.2264C18.0481 11.3182 18.0645 11.4161 18.0627 11.5146C18.0609 11.6131 18.0409 11.7103 18.0039 11.8006C17.9669 11.8909 17.9136 11.9725 17.847 12.0408C17.7804 12.1091 17.7019 12.1627 17.6158 12.1987C17.5298 12.2346 17.438 12.2521 17.3456 12.2502C17.2533 12.2482 17.1622 12.2269 17.0775 12.1875L16.0229 11.6968C15.5636 12.6181 14.878 13.3886 14.0396 13.926C13.2011 14.4633 12.2414 14.7472 11.2633 14.7472C10.2851 14.7472 9.32541 14.4633 8.48697 13.926C7.64852 13.3886 6.96295 12.6181 6.50371 11.6968L5.44902 12.1875C5.36438 12.2269 5.27328 12.2482 5.18092 12.2502C5.08856 12.2521 4.99674 12.2346 4.91072 12.1987C4.8247 12.1627 4.74616 12.1091 4.67957 12.0408C4.61299 11.9725 4.55967 11.8909 4.52266 11.8006C4.48564 11.7103 4.46567 11.6131 4.46386 11.5146C4.46206 11.4161 4.47847 11.3182 4.51215 11.2264C4.54583 11.1346 4.59612 11.0509 4.66015 10.9798C4.72419 10.9088 4.80071 10.8519 4.88535 10.8125L6.00742 10.29C5.91771 9.86668 5.87328 9.43392 5.875 8.99996V8.74996H4.70312C4.51664 8.74996 4.3378 8.67094 4.20594 8.53029C4.07408 8.38964 4 8.19887 4 7.99996C4 7.80105 4.07408 7.61028 4.20594 7.46963C4.3378 7.32898 4.51664 7.24996 4.70312 7.24996H5.875V6.99996C5.87482 6.56581 5.92082 6.13305 6.01211 5.70996L4.89004 5.18746C4.7191 5.10773 4.58485 4.95883 4.51683 4.77352C4.44882 4.58821 4.4526 4.38167 4.52734 4.19934C4.60209 4.017 4.74168 3.8738 4.91541 3.80125C5.08914 3.7287 5.28277 3.73273 5.45371 3.81246L6.5084 4.30309C6.96764 3.38187 7.65321 2.61129 8.49165 2.07393C9.3301 1.53657 10.2898 1.25269 11.268 1.25269C12.2461 1.25269 13.2058 1.53657 14.0443 2.07393C14.8827 2.61129 15.5683 3.38187 16.0275 4.30309L17.0822 3.81246C17.1669 3.77298 17.258 3.75167 17.3503 3.74975C17.4427 3.74783 17.5345 3.76533 17.6205 3.80125C17.7065 3.83718 17.7851 3.89082 17.8517 3.95912C17.9183 4.02743 17.9716 4.10905 18.0086 4.19934C18.0456 4.28962 18.0656 4.38679 18.0674 4.48531C18.0692 4.58383 18.0528 4.68177 18.0191 4.77352C17.9854 4.86528 17.9351 4.94906 17.8711 5.02008C17.8071 5.09111 17.7305 5.14798 17.6459 5.18746L16.5238 5.70996C16.6135 6.13324 16.658 6.566 16.6562 6.99996V7.24996H17.8281C18.0146 7.24996 18.1934 7.32898 18.3253 7.46963C18.4572 7.61028 18.5312 7.80105 18.5312 7.99996C18.5312 8.19887 18.4572 8.38964 18.3253 8.53029C18.1934 8.67094 18.0146 8.74996 17.8281 8.74996H16.6562V8.99996ZM7.28125 7.24996H15.25V6.99996C15.25 5.87279 14.8302 4.79179 14.083 3.99476C13.3358 3.19773 12.3223 2.74996 11.2656 2.74996C10.2089 2.74996 9.19546 3.19773 8.44825 3.99476C7.70103 4.79179 7.28125 5.87279 7.28125 6.99996V7.24996ZM10.5625 13.1825V8.74996H7.28125V8.99996C7.28257 9.99659 7.61173 10.9611 8.21135 11.7254C8.81097 12.4897 9.64303 13.0054 10.5625 13.1825ZM15.25 8.99996V8.74996H11.9688V13.1825C12.8882 13.0054 13.7203 12.4897 14.3199 11.7254C14.9195 10.9611 15.2487 9.99659 15.25 8.99996Z" stroke="url(#paint0_linear_14_561)" stroke-width="2" shape-rendering="crispEdges" mask="url(#path-1-inside-1_14_561)"/>
</g>
<defs>
<filter id="filter0_d_14_561" x="0" y="1.25269" width="22.5312" height="21.4945" filterUnits="userSpaceOnUse" color-interpolation-filters="sRGB">
<feFlood flood-opacity="0" result="BackgroundImageFix"/>
<feColorMatrix in="SourceAlpha" type="matrix" values="0 0 0 0 0 0 0 0 0 0 0 0 0 0 0 0 0 0 127 0" result="hardAlpha"/>
<feOffset dy="4"/>
<feGaussianBlur stdDeviation="2"/>
<feComposite in2="hardAlpha" operator="out"/>
<feColorMatrix type="matrix" values="0 0 0 0 0 0 0 0 0 0 0 0 0 0 0 0 0 0 0.25 0"/>
<feBlend mode="normal" in2="BackgroundImageFix" result="effect1_dropShadow_14_561"/>
<feBlend mode="normal" in="SourceGraphic" in2="effect1_dropShadow_14_561" result="shape"/>
</filter>
<linearGradient id="paint0_linear_14_561" x1="11.2656" y1="1.25269" x2="11.2656" y2="14.7472" gradientUnits="userSpaceOnUse">
<stop stop-color="#FAFAFA"/>
<stop offset="1" stop-color="#949494"/>
</linearGradient>
</defs>
</svg>
