<svg width="194" height="133" viewBox="0 0 194 133" fill="none" xmlns="http://www.w3.org/2000/svg">
<g clip-path="url(#clip0_13_507)">
<rect width="193.333" height="133" rx="20" fill="url(#paint0_linear_13_507)" fill-opacity="0.2"/>
<g filter="url(#filter1_fn_13_507)">
<ellipse cx="173.5" cy="168.084" rx="91.5" ry="89.729" fill="url(#paint1_linear_13_507)"/>
</g>
<rect x="143" y="15" width="35" height="36" rx="17.5" fill="url(#paint2_linear_13_507)" fill-opacity="0.2"/>
<rect x="143" y="15" width="35" height="36" rx="17.5" stroke="url(#paint3_linear_13_507)"/>
<g filter="url(#filter3_d_13_507)">
<mask id="path-4-inside-1_13_507" fill="white">
<path d="M161.203 30.5C161.203 30.3022 161.258 30.1088 161.361 29.9444C161.464 29.7799 161.611 29.6518 161.782 29.5761C161.953 29.5004 162.142 29.4806 162.324 29.5192C162.505 29.5578 162.672 29.653 162.804 29.7929C162.935 29.9327 163.024 30.1109 163.06 30.3049C163.096 30.4989 163.078 30.6999 163.007 30.8826C162.936 31.0654 162.816 31.2215 162.661 31.3314C162.507 31.4413 162.326 31.5 162.141 31.5C161.892 31.5 161.654 31.3946 161.478 31.2071C161.302 31.0195 161.203 30.7652 161.203 30.5ZM158.859 29.5C158.674 29.5 158.493 29.5586 158.339 29.6685C158.184 29.7784 158.064 29.9346 157.993 30.1173C157.922 30.3 157.904 30.5011 157.94 30.6951C157.976 30.889 158.065 31.0672 158.196 31.2071C158.328 31.3469 158.495 31.4422 158.676 31.4807C158.858 31.5193 159.047 31.4995 159.218 31.4238C159.389 31.3482 159.536 31.22 159.639 31.0555C159.742 30.8911 159.797 30.6977 159.797 30.5C159.797 30.2347 159.698 29.9804 159.522 29.7929C159.346 29.6053 159.108 29.5 158.859 29.5ZM165.891 34C165.891 34.4341 165.845 34.8669 165.754 35.29L166.876 35.8125C166.96 35.8519 167.037 35.9088 167.101 35.9798C167.165 36.0509 167.215 36.1346 167.249 36.2264C167.282 36.3182 167.299 36.4161 167.297 36.5146C167.295 36.6131 167.275 36.7103 167.238 36.8006C167.201 36.8909 167.148 36.9725 167.081 37.0408C167.015 37.1091 166.936 37.1627 166.85 37.1987C166.764 37.2346 166.672 37.2521 166.58 37.2502C166.488 37.2482 166.397 37.2269 166.312 37.1875L165.257 36.6968C164.798 37.6181 164.112 38.3886 163.274 38.926C162.436 39.4633 161.476 39.7472 160.498 39.7472C159.52 39.7472 158.56 39.4633 157.721 38.926C156.883 38.3886 156.197 37.6181 155.738 36.6968L154.683 37.1875C154.599 37.2269 154.508 37.2482 154.415 37.2502C154.323 37.2521 154.231 37.2346 154.145 37.1987C154.059 37.1627 153.981 37.1091 153.914 37.0408C153.847 36.9725 153.794 36.8909 153.757 36.8006C153.72 36.7103 153.7 36.6131 153.698 36.5146C153.696 36.4161 153.713 36.3182 153.747 36.2264C153.78 36.1346 153.83 36.0509 153.895 35.9798C153.959 35.9088 154.035 35.8519 154.12 35.8125L155.242 35.29C155.152 34.8667 155.108 34.4339 155.109 34V33.75H153.938C153.751 33.75 153.572 33.6709 153.44 33.5303C153.308 33.3896 153.234 33.1989 153.234 33C153.234 32.801 153.308 32.6103 153.44 32.4696C153.572 32.329 153.751 32.25 153.938 32.25H155.109V32C155.109 31.5658 155.155 31.133 155.246 30.71L154.124 30.1875C153.953 30.1077 153.819 29.9588 153.751 29.7735C153.683 29.5882 153.687 29.3817 153.762 29.1993C153.836 29.017 153.976 28.8738 154.15 28.8013C154.324 28.7287 154.517 28.7327 154.688 28.8125L155.743 29.3031C156.202 28.3819 156.888 27.6113 157.726 27.0739C158.564 26.5366 159.524 26.2527 160.502 26.2527C161.48 26.2527 162.44 26.5366 163.279 27.0739C164.117 27.6113 164.803 28.3819 165.262 29.3031L166.317 28.8125C166.401 28.773 166.492 28.7517 166.585 28.7497C166.677 28.7478 166.769 28.7653 166.855 28.8013C166.941 28.8372 167.019 28.8908 167.086 28.9591C167.153 29.0274 167.206 29.1091 167.243 29.1993C167.28 29.2896 167.3 29.3868 167.302 29.4853C167.304 29.5838 167.287 29.6818 167.253 29.7735C167.22 29.8653 167.17 29.9491 167.105 30.0201C167.041 30.0911 166.965 30.148 166.88 30.1875L165.758 30.71C165.848 31.1332 165.892 31.566 165.891 32V32.25H167.062C167.249 32.25 167.428 32.329 167.56 32.4696C167.692 32.6103 167.766 32.801 167.766 33C167.766 33.1989 167.692 33.3896 167.56 33.5303C167.428 33.6709 167.249 33.75 167.062 33.75H165.891V34ZM156.516 32.25H164.484V32C164.484 30.8728 164.065 29.7918 163.317 28.9948C162.57 28.1977 161.557 27.75 160.5 27.75C159.443 27.75 158.43 28.1977 157.683 28.9948C156.935 29.7918 156.516 30.8728 156.516 32V32.25ZM159.797 38.1825V33.75H156.516V34C156.517 34.9966 156.846 35.9611 157.446 36.7254C158.045 37.4897 158.877 38.0054 159.797 38.1825ZM164.484 34V33.75H161.203V38.1825C162.123 38.0054 162.955 37.4897 163.554 36.7254C164.154 35.9611 164.483 34.9966 164.484 34Z"/>
</mask>
<path d="M161.203 30.5C161.203 30.3022 161.258 30.1088 161.361 29.9444C161.464 29.7799 161.611 29.6518 161.782 29.5761C161.953 29.5004 162.142 29.4806 162.324 29.5192C162.505 29.5578 162.672 29.653 162.804 29.7929C162.935 29.9327 163.024 30.1109 163.06 30.3049C163.096 30.4989 163.078 30.6999 163.007 30.8826C162.936 31.0654 162.816 31.2215 162.661 31.3314C162.507 31.4413 162.326 31.5 162.141 31.5C161.892 31.5 161.654 31.3946 161.478 31.2071C161.302 31.0195 161.203 30.7652 161.203 30.5ZM158.859 29.5C158.674 29.5 158.493 29.5586 158.339 29.6685C158.184 29.7784 158.064 29.9346 157.993 30.1173C157.922 30.3 157.904 30.5011 157.94 30.6951C157.976 30.889 158.065 31.0672 158.196 31.2071C158.328 31.3469 158.495 31.4422 158.676 31.4807C158.858 31.5193 159.047 31.4995 159.218 31.4238C159.389 31.3482 159.536 31.22 159.639 31.0555C159.742 30.8911 159.797 30.6977 159.797 30.5C159.797 30.2347 159.698 29.9804 159.522 29.7929C159.346 29.6053 159.108 29.5 158.859 29.5ZM165.891 34C165.891 34.4341 165.845 34.8669 165.754 35.29L166.876 35.8125C166.96 35.8519 167.037 35.9088 167.101 35.9798C167.165 36.0509 167.215 36.1346 167.249 36.2264C167.282 36.3182 167.299 36.4161 167.297 36.5146C167.295 36.6131 167.275 36.7103 167.238 36.8006C167.201 36.8909 167.148 36.9725 167.081 37.0408C167.015 37.1091 166.936 37.1627 166.85 37.1987C166.764 37.2346 166.672 37.2521 166.58 37.2502C166.488 37.2482 166.397 37.2269 166.312 37.1875L165.257 36.6968C164.798 37.6181 164.112 38.3886 163.274 38.926C162.436 39.4633 161.476 39.7472 160.498 39.7472C159.52 39.7472 158.56 39.4633 157.721 38.926C156.883 38.3886 156.197 37.6181 155.738 36.6968L154.683 37.1875C154.599 37.2269 154.508 37.2482 154.415 37.2502C154.323 37.2521 154.231 37.2346 154.145 37.1987C154.059 37.1627 153.981 37.1091 153.914 37.0408C153.847 36.9725 153.794 36.8909 153.757 36.8006C153.72 36.7103 153.7 36.6131 153.698 36.5146C153.696 36.4161 153.713 36.3182 153.747 36.2264C153.78 36.1346 153.83 36.0509 153.895 35.9798C153.959 35.9088 154.035 35.8519 154.12 35.8125L155.242 35.29C155.152 34.8667 155.108 34.4339 155.109 34V33.75H153.938C153.751 33.75 153.572 33.6709 153.44 33.5303C153.308 33.3896 153.234 33.1989 153.234 33C153.234 32.801 153.308 32.6103 153.44 32.4696C153.572 32.329 153.751 32.25 153.938 32.25H155.109V32C155.109 31.5658 155.155 31.133 155.246 30.71L154.124 30.1875C153.953 30.1077 153.819 29.9588 153.751 29.7735C153.683 29.5882 153.687 29.3817 153.762 29.1993C153.836 29.017 153.976 28.8738 154.15 28.8013C154.324 28.7287 154.517 28.7327 154.688 28.8125L155.743 29.3031C156.202 28.3819 156.888 27.6113 157.726 27.0739C158.564 26.5366 159.524 26.2527 160.502 26.2527C161.48 26.2527 162.44 26.5366 163.279 27.0739C164.117 27.6113 164.803 28.3819 165.262 29.3031L166.317 28.8125C166.401 28.773 166.492 28.7517 166.585 28.7497C166.677 28.7478 166.769 28.7653 166.855 28.8013C166.941 28.8372 167.019 28.8908 167.086 28.9591C167.153 29.0274 167.206 29.1091 167.243 29.1993C167.28 29.2896 167.3 29.3868 167.302 29.4853C167.304 29.5838 167.287 29.6818 167.253 29.7735C167.22 29.8653 167.17 29.9491 167.105 30.0201C167.041 30.0911 166.965 30.148 166.88 30.1875L165.758 30.71C165.848 31.1332 165.892 31.566 165.891 32V32.25H167.062C167.249 32.25 167.428 32.329 167.56 32.4696C167.692 32.6103 167.766 32.801 167.766 33C167.766 33.1989 167.692 33.3896 167.56 33.5303C167.428 33.6709 167.249 33.75 167.062 33.75H165.891V34ZM156.516 32.25H164.484V32C164.484 30.8728 164.065 29.7918 163.317 28.9948C162.57 28.1977 161.557 27.75 160.5 27.75C159.443 27.75 158.43 28.1977 157.683 28.9948C156.935 29.7918 156.516 30.8728 156.516 32V32.25ZM159.797 38.1825V33.75H156.516V34C156.517 34.9966 156.846 35.9611 157.446 36.7254C158.045 37.4897 158.877 38.0054 159.797 38.1825ZM164.484 34V33.75H161.203V38.1825C162.123 38.0054 162.955 37.4897 163.554 36.7254C164.154 35.9611 164.483 34.9966 164.484 34Z" stroke="url(#paint4_linear_13_507)" stroke-width="2" shape-rendering="crispEdges" mask="url(#path-4-inside-1_13_507)"/>
</g>
<rect x="137" y="102" width="46" height="22" rx="11" fill="url(#paint5_linear_13_507)" fill-opacity="0.2"/>
<rect x="137" y="102" width="46" height="22" rx="11" stroke="url(#paint6_linear_13_507)"/>
<path d="M145.912 112.04H146.662V113.79H148.332V114.48H146.662V116.24H145.912V114.48H144.252V113.79H145.912V112.04ZM149.046 110H153.986V110.59L150.546 117H149.636L153.066 110.77H149.046V110ZM153.907 116.5C153.907 116.333 153.961 116.2 154.067 116.1C154.174 115.993 154.311 115.94 154.477 115.94C154.644 115.94 154.781 115.993 154.887 116.1C154.994 116.2 155.047 116.333 155.047 116.5C155.047 116.667 154.994 116.803 154.887 116.91C154.781 117.01 154.644 117.06 154.477 117.06C154.311 117.06 154.174 117.01 154.067 116.91C153.961 116.803 153.907 116.667 153.907 116.5ZM155.455 114.54L158.965 110H159.965V114.52H161.095V115.29H159.965V117H159.125V115.29H155.455V114.54ZM156.355 114.52H159.125V110.94L156.355 114.52ZM165.378 113.39C165.791 113.47 166.141 113.657 166.428 113.95C166.715 114.237 166.858 114.607 166.858 115.06C166.858 115.453 166.751 115.803 166.538 116.11C166.331 116.41 166.035 116.643 165.648 116.81C165.261 116.977 164.815 117.06 164.308 117.06C163.535 117.06 162.918 116.863 162.458 116.47C161.998 116.07 161.768 115.527 161.768 114.84H162.628C162.635 115.293 162.795 115.653 163.108 115.92C163.428 116.18 163.845 116.31 164.358 116.31C164.831 116.31 165.221 116.19 165.528 115.95C165.841 115.71 165.998 115.393 165.998 115C165.998 114.627 165.848 114.333 165.548 114.12C165.248 113.907 164.825 113.8 164.278 113.8H163.678V113.07H164.228C164.741 113.07 165.135 112.957 165.408 112.73C165.681 112.503 165.818 112.207 165.818 111.84C165.818 111.487 165.678 111.207 165.398 111C165.125 110.793 164.771 110.69 164.338 110.69C163.885 110.69 163.515 110.807 163.228 111.04C162.948 111.267 162.805 111.577 162.798 111.97H161.958C161.965 111.337 162.181 110.84 162.608 110.48C163.035 110.12 163.601 109.94 164.308 109.94C164.788 109.94 165.208 110.017 165.568 110.17C165.928 110.323 166.201 110.54 166.388 110.82C166.581 111.1 166.678 111.423 166.678 111.79C166.678 112.217 166.561 112.57 166.328 112.85C166.095 113.13 165.778 113.31 165.378 113.39ZM167.864 111.64C167.864 111.313 167.941 111.023 168.094 110.77C168.248 110.51 168.458 110.307 168.724 110.16C168.991 110.013 169.291 109.94 169.624 109.94C169.958 109.94 170.258 110.013 170.524 110.16C170.791 110.307 171.001 110.51 171.154 110.77C171.308 111.023 171.384 111.313 171.384 111.64C171.384 111.96 171.308 112.25 171.154 112.51C171.001 112.763 170.791 112.963 170.524 113.11C170.258 113.25 169.958 113.32 169.624 113.32C169.291 113.32 168.991 113.25 168.724 113.11C168.458 112.963 168.248 112.763 168.094 112.51C167.941 112.25 167.864 111.96 167.864 111.64ZM169.044 117L173.814 110H174.624L169.854 117H169.044ZM170.644 111.64C170.644 111.34 170.548 111.093 170.354 110.9C170.161 110.7 169.918 110.6 169.624 110.6C169.331 110.6 169.088 110.7 168.894 110.9C168.701 111.093 168.604 111.34 168.604 111.64C168.604 111.933 168.701 112.177 168.894 112.37C169.088 112.563 169.331 112.66 169.624 112.66C169.918 112.66 170.161 112.563 170.354 112.37C170.548 112.177 170.644 111.933 170.644 111.64ZM172.264 115.38C172.264 115.053 172.341 114.763 172.494 114.51C172.648 114.25 172.858 114.047 173.124 113.9C173.391 113.753 173.691 113.68 174.024 113.68C174.358 113.68 174.658 113.753 174.924 113.9C175.191 114.047 175.401 114.25 175.554 114.51C175.708 114.763 175.784 115.053 175.784 115.38C175.784 115.7 175.708 115.99 175.554 116.25C175.401 116.503 175.191 116.703 174.924 116.85C174.658 116.99 174.358 117.06 174.024 117.06C173.691 117.06 173.391 116.99 173.124 116.85C172.858 116.703 172.648 116.503 172.494 116.25C172.341 115.99 172.264 115.7 172.264 115.38ZM175.044 115.38C175.044 115.08 174.948 114.833 174.754 114.64C174.561 114.44 174.318 114.34 174.024 114.34C173.731 114.34 173.488 114.44 173.294 114.64C173.101 114.833 173.004 115.08 173.004 115.38C173.004 115.673 173.101 115.917 173.294 116.11C173.488 116.303 173.731 116.4 174.024 116.4C174.318 116.4 174.561 116.303 174.754 116.11C174.948 115.917 175.044 115.673 175.044 115.38Z" fill="white"/>
<path d="M13.36 19.5H21.565V21.03H18.325V30H16.6V21.03H13.36V19.5ZM24.9836 30.09C24.2136 30.09 23.5286 29.93 22.9286 29.61C22.3386 29.28 21.8786 28.82 21.5486 28.23C21.2286 27.63 21.0686 26.94 21.0686 26.16C21.0686 25.39 21.2286 24.71 21.5486 24.12C21.8786 23.52 22.3386 23.055 22.9286 22.725C23.5286 22.395 24.2136 22.23 24.9836 22.23C25.7536 22.23 26.4336 22.395 27.0236 22.725C27.6236 23.055 28.0836 23.52 28.4036 24.12C28.7336 24.71 28.8986 25.39 28.8986 26.16C28.8986 26.94 28.7336 27.63 28.4036 28.23C28.0836 28.82 27.6236 29.28 27.0236 29.61C26.4336 29.93 25.7536 30.09 24.9836 30.09ZM24.9836 28.71C25.6636 28.71 26.2086 28.475 26.6186 28.005C27.0386 27.525 27.2486 26.91 27.2486 26.16C27.2486 25.41 27.0386 24.8 26.6186 24.33C26.2086 23.85 25.6636 23.61 24.9836 23.61C24.3036 23.61 23.7586 23.85 23.3486 24.33C22.9386 24.8 22.7336 25.41 22.7336 26.16C22.7336 26.91 22.9386 27.525 23.3486 28.005C23.7586 28.475 24.3036 28.71 24.9836 28.71ZM30.6377 23.745H29.3027V22.32H30.6377V20.175H32.2727V22.32H34.1177V23.745H32.2727V27.75C32.2727 28.05 32.3327 28.265 32.4527 28.395C32.5727 28.515 32.7777 28.575 33.0677 28.575H34.2977V30H32.7377C32.0077 30 31.4727 29.83 31.1327 29.49C30.8027 29.15 30.6377 28.625 30.6377 27.915V23.745ZM42.4292 28.59V30H41.5742C41.0742 30 40.7142 29.895 40.4942 29.685C40.2742 29.475 40.1642 29.17 40.1642 28.77C39.5842 29.65 38.7392 30.09 37.6292 30.09C36.7692 30.09 36.0792 29.89 35.5592 29.49C35.0392 29.09 34.7792 28.54 34.7792 27.84C34.7792 27.05 35.0592 26.445 35.6192 26.025C36.1792 25.595 36.9942 25.38 38.0642 25.38H39.9992V24.915C39.9992 24.485 39.8492 24.15 39.5492 23.91C39.2492 23.66 38.8342 23.535 38.3042 23.535C37.8342 23.535 37.4442 23.64 37.1342 23.85C36.8342 24.05 36.6542 24.32 36.5942 24.66H35.0042C35.0842 23.89 35.4242 23.295 36.0242 22.875C36.6242 22.445 37.4092 22.23 38.3792 22.23C39.4092 22.23 40.2042 22.47 40.7642 22.95C41.3242 23.43 41.6042 24.12 41.6042 25.02V28.05C41.6042 28.41 41.7742 28.59 42.1142 28.59H42.4292ZM39.9992 26.58H37.9892C37.4892 26.58 37.1042 26.68 36.8342 26.88C36.5642 27.07 36.4292 27.355 36.4292 27.735C36.4292 28.065 36.5542 28.33 36.8042 28.53C37.0642 28.73 37.4142 28.83 37.8542 28.83C38.5242 28.83 39.0442 28.65 39.4142 28.29C39.7942 27.93 39.9892 27.45 39.9992 26.85V26.58ZM43.3116 19.5H44.9316V30H43.3116V19.5ZM13.075 37.5H14.905L17.8 45.93L20.725 37.5H22.51L18.835 48H16.765L13.075 37.5ZM29.9671 40.32V48H28.5421L28.3621 47.025C27.7821 47.735 26.9921 48.09 25.9921 48.09C25.0921 48.09 24.3621 47.81 23.8021 47.25C23.2421 46.69 22.9621 45.79 22.9621 44.55V40.32H24.5821V44.385C24.5821 45.135 24.7321 45.705 25.0321 46.095C25.3321 46.485 25.7771 46.68 26.3671 46.68C26.9871 46.68 27.4721 46.455 27.8221 46.005C28.1721 45.545 28.3471 44.92 28.3471 44.13V40.32H29.9671ZM31.5636 37.5H33.1836V48H31.5636V37.5ZM38.8216 40.23C39.7316 40.23 40.4716 40.51 41.0416 41.07C41.6216 41.63 41.9116 42.53 41.9116 43.77V48H40.2766V43.86C40.2766 43.13 40.1216 42.575 39.8116 42.195C39.5016 41.815 39.0466 41.625 38.4466 41.625C37.8066 41.625 37.3016 41.85 36.9316 42.3C36.5716 42.74 36.3916 43.35 36.3916 44.13V48H34.7716V40.32H36.1816L36.3616 41.325C36.9416 40.595 37.7616 40.23 38.8216 40.23ZM43.0998 44.175C43.0998 43.385 43.2548 42.695 43.5648 42.105C43.8848 41.505 44.3248 41.045 44.8848 40.725C45.4548 40.395 46.1048 40.23 46.8348 40.23C47.5748 40.23 48.2248 40.38 48.7848 40.68C49.3548 40.98 49.7998 41.405 50.1198 41.955C50.4498 42.505 50.6198 43.15 50.6298 43.89C50.6298 44.09 50.6148 44.295 50.5848 44.505H44.7948V44.595C44.8348 45.265 45.0448 45.795 45.4248 46.185C45.8048 46.575 46.3098 46.77 46.9398 46.77C47.4398 46.77 47.8598 46.655 48.1998 46.425C48.5398 46.185 48.7648 45.85 48.8748 45.42H50.4948C50.3548 46.2 49.9748 46.84 49.3548 47.34C48.7448 47.84 47.9798 48.09 47.0598 48.09C46.2598 48.09 45.5598 47.93 44.9598 47.61C44.3698 47.28 43.9098 46.82 43.5798 46.23C43.2598 45.64 43.0998 44.955 43.0998 44.175ZM48.9798 43.32C48.9098 42.76 48.6848 42.325 48.3048 42.015C47.9348 41.695 47.4648 41.535 46.8948 41.535C46.3648 41.535 45.9048 41.7 45.5148 42.03C45.1348 42.35 44.9148 42.78 44.8548 43.32H48.9798ZM56.1845 40.32V41.835H55.4645C54.7945 41.835 54.3095 42.055 54.0095 42.495C53.7095 42.925 53.5595 43.475 53.5595 44.145V48H51.9395V40.32H53.3795L53.5595 41.475C53.7795 41.115 54.0645 40.835 54.4145 40.635C54.7645 40.425 55.2345 40.32 55.8245 40.32H56.1845ZM64.27 46.59V48H63.415C62.915 48 62.555 47.895 62.335 47.685C62.115 47.475 62.005 47.17 62.005 46.77C61.425 47.65 60.58 48.09 59.47 48.09C58.61 48.09 57.92 47.89 57.4 47.49C56.88 47.09 56.62 46.54 56.62 45.84C56.62 45.05 56.9 44.445 57.46 44.025C58.02 43.595 58.835 43.38 59.905 43.38H61.84V42.915C61.84 42.485 61.69 42.15 61.39 41.91C61.09 41.66 60.675 41.535 60.145 41.535C59.675 41.535 59.285 41.64 58.975 41.85C58.675 42.05 58.495 42.32 58.435 42.66H56.845C56.925 41.89 57.265 41.295 57.865 40.875C58.465 40.445 59.25 40.23 60.22 40.23C61.25 40.23 62.045 40.47 62.605 40.95C63.165 41.43 63.445 42.12 63.445 43.02V46.05C63.445 46.41 63.615 46.59 63.955 46.59H64.27ZM61.84 44.58H59.83C59.33 44.58 58.945 44.68 58.675 44.88C58.405 45.07 58.27 45.355 58.27 45.735C58.27 46.065 58.395 46.33 58.645 46.53C58.905 46.73 59.255 46.83 59.695 46.83C60.365 46.83 60.885 46.65 61.255 46.29C61.635 45.93 61.83 45.45 61.84 44.85V44.58ZM69.2624 40.23C69.9624 40.23 70.5874 40.39 71.1374 40.71C71.6874 41.02 72.1174 41.47 72.4274 42.06C72.7374 42.65 72.8924 43.35 72.8924 44.16C72.8924 44.93 72.7374 45.615 72.4274 46.215C72.1174 46.805 71.6874 47.265 71.1374 47.595C70.5874 47.925 69.9624 48.09 69.2624 48.09C68.6924 48.09 68.1974 47.985 67.7774 47.775C67.3574 47.555 67.0174 47.26 66.7574 46.89L66.5624 48H65.1524V37.5H66.7724V41.46C67.3824 40.64 68.2124 40.23 69.2624 40.23ZM68.9924 46.725C69.6624 46.725 70.2024 46.49 70.6124 46.02C71.0324 45.54 71.2424 44.92 71.2424 44.16C71.2424 43.41 71.0324 42.8 70.6124 42.33C70.2024 41.85 69.6624 41.61 68.9924 41.61C68.3224 41.61 67.7824 41.845 67.3724 42.315C66.9624 42.785 66.7574 43.395 66.7574 44.145C66.7574 44.905 66.9624 45.525 67.3724 46.005C67.7824 46.485 68.3224 46.725 68.9924 46.725ZM75.0005 37.245C75.2805 37.245 75.5155 37.34 75.7055 37.53C75.8955 37.71 75.9905 37.94 75.9905 38.22C75.9905 38.5 75.8955 38.735 75.7055 38.925C75.5155 39.105 75.2805 39.195 75.0005 39.195C74.7205 39.195 74.4855 39.105 74.2955 38.925C74.1055 38.735 74.0105 38.5 74.0105 38.22C74.0105 37.94 74.1055 37.71 74.2955 37.53C74.4855 37.34 74.7205 37.245 75.0005 37.245ZM74.1905 40.32H75.8105V48H74.1905V40.32ZM77.3985 37.5H79.0185V48H77.3985V37.5ZM81.4165 37.245C81.6965 37.245 81.9315 37.34 82.1215 37.53C82.3115 37.71 82.4065 37.94 82.4065 38.22C82.4065 38.5 82.3115 38.735 82.1215 38.925C81.9315 39.105 81.6965 39.195 81.4165 39.195C81.1365 39.195 80.9015 39.105 80.7115 38.925C80.5215 38.735 80.4265 38.5 80.4265 38.22C80.4265 37.94 80.5215 37.71 80.7115 37.53C80.9015 37.34 81.1365 37.245 81.4165 37.245ZM80.6065 40.32H82.2265V48H80.6065V40.32ZM84.3095 41.745H82.9745V40.32H84.3095V38.175H85.9445V40.32H87.7895V41.745H85.9445V45.75C85.9445 46.05 86.0045 46.265 86.1245 46.395C86.2445 46.515 86.4495 46.575 86.7395 46.575H87.9695V48H86.4095C85.6795 48 85.1445 47.83 84.8045 47.49C84.4745 47.15 84.3095 46.625 84.3095 45.915V41.745ZM89.6489 37.245C89.9289 37.245 90.1639 37.34 90.3539 37.53C90.5439 37.71 90.6389 37.94 90.6389 38.22C90.6389 38.5 90.5439 38.735 90.3539 38.925C90.1639 39.105 89.9289 39.195 89.6489 39.195C89.3689 39.195 89.1339 39.105 88.9439 38.925C88.7539 38.735 88.6589 38.5 88.6589 38.22C88.6589 37.94 88.7539 37.71 88.9439 37.53C89.1339 37.34 89.3689 37.245 89.6489 37.245ZM88.8389 40.32H90.4589V48H88.8389V40.32ZM91.762 44.175C91.762 43.385 91.917 42.695 92.227 42.105C92.547 41.505 92.987 41.045 93.547 40.725C94.117 40.395 94.767 40.23 95.497 40.23C96.237 40.23 96.887 40.38 97.447 40.68C98.017 40.98 98.462 41.405 98.782 41.955C99.112 42.505 99.282 43.15 99.292 43.89C99.292 44.09 99.277 44.295 99.247 44.505H93.457V44.595C93.497 45.265 93.707 45.795 94.087 46.185C94.467 46.575 94.972 46.77 95.602 46.77C96.102 46.77 96.522 46.655 96.862 46.425C97.202 46.185 97.427 45.85 97.537 45.42H99.157C99.017 46.2 98.637 46.84 98.017 47.34C97.407 47.84 96.642 48.09 95.722 48.09C94.922 48.09 94.222 47.93 93.622 47.61C93.032 47.28 92.572 46.82 92.242 46.23C91.922 45.64 91.762 44.955 91.762 44.175ZM97.642 43.32C97.572 42.76 97.347 42.325 96.967 42.015C96.597 41.695 96.127 41.535 95.557 41.535C95.027 41.535 94.567 41.7 94.177 42.03C93.797 42.35 93.577 42.78 93.517 43.32H97.642ZM101.848 45.465C101.878 45.865 102.063 46.195 102.403 46.455C102.753 46.705 103.203 46.83 103.753 46.83C104.243 46.83 104.638 46.74 104.938 46.56C105.248 46.37 105.403 46.12 105.403 45.81C105.403 45.55 105.333 45.355 105.193 45.225C105.053 45.095 104.863 45.005 104.623 44.955C104.393 44.895 104.033 44.835 103.543 44.775C102.873 44.695 102.318 44.59 101.878 44.46C101.448 44.32 101.098 44.105 100.828 43.815C100.568 43.515 100.438 43.115 100.438 42.615C100.438 42.145 100.568 41.73 100.828 41.37C101.098 41 101.463 40.715 101.923 40.515C102.393 40.315 102.923 40.215 103.513 40.215C104.483 40.215 105.268 40.43 105.868 40.86C106.478 41.29 106.808 41.895 106.858 42.675H105.283C105.243 42.325 105.068 42.04 104.758 41.82C104.448 41.59 104.058 41.475 103.588 41.475C103.118 41.475 102.738 41.565 102.448 41.745C102.158 41.925 102.013 42.17 102.013 42.48C102.013 42.71 102.083 42.885 102.223 43.005C102.373 43.115 102.558 43.195 102.778 43.245C102.998 43.285 103.353 43.335 103.843 43.395C104.503 43.465 105.058 43.575 105.508 43.725C105.958 43.865 106.318 44.095 106.588 44.415C106.858 44.725 106.993 45.15 106.993 45.69C106.993 46.17 106.853 46.595 106.573 46.965C106.293 47.325 105.908 47.605 105.418 47.805C104.928 47.995 104.378 48.09 103.768 48.09C102.738 48.09 101.903 47.86 101.263 47.4C100.633 46.93 100.308 46.285 100.288 45.465H101.848Z" fill="url(#paint7_linear_13_507)"/>
<path d="M14.08 111.88V111.196C14.08 110.652 14.204 110.252 14.452 109.996C14.708 109.732 15.116 109.6 15.676 109.6H16.804V110.5H15.736C15.496 110.5 15.324 110.552 15.22 110.656C15.116 110.76 15.064 110.932 15.064 111.172V111.88H16.792V112.78H15.064V118H14.08V112.78H12.976V111.88H14.08ZM20.5652 111.88V112.84H20.0732C19.4892 112.84 19.0692 113.036 18.8132 113.428C18.5652 113.82 18.4412 114.304 18.4412 114.88V118H17.4572V111.88H18.3092L18.4412 112.804C18.6172 112.524 18.8452 112.3 19.1252 112.132C19.4052 111.964 19.7932 111.88 20.2892 111.88H20.5652ZM23.9334 118.072C23.3414 118.072 22.8134 117.94 22.3494 117.676C21.8934 117.412 21.5374 117.044 21.2814 116.572C21.0254 116.1 20.8974 115.556 20.8974 114.94C20.8974 114.324 21.0254 113.78 21.2814 113.308C21.5374 112.836 21.8934 112.468 22.3494 112.204C22.8134 111.94 23.3414 111.808 23.9334 111.808C24.5254 111.808 25.0494 111.94 25.5054 112.204C25.9694 112.468 26.3294 112.836 26.5854 113.308C26.8414 113.78 26.9694 114.324 26.9694 114.94C26.9694 115.556 26.8414 116.1 26.5854 116.572C26.3294 117.044 25.9694 117.412 25.5054 117.676C25.0494 117.94 24.5254 118.072 23.9334 118.072ZM23.9334 117.196C24.3334 117.196 24.6854 117.1 24.9894 116.908C25.3014 116.716 25.5414 116.448 25.7094 116.104C25.8774 115.76 25.9614 115.372 25.9614 114.94C25.9614 114.508 25.8774 114.12 25.7094 113.776C25.5414 113.432 25.3014 113.164 24.9894 112.972C24.6854 112.78 24.3334 112.684 23.9334 112.684C23.5334 112.684 23.1774 112.78 22.8654 112.972C22.5614 113.164 22.3254 113.432 22.1574 113.776C21.9894 114.12 21.9054 114.508 21.9054 114.94C21.9054 115.372 21.9894 115.76 22.1574 116.104C22.3254 116.448 22.5614 116.716 22.8654 116.908C23.1774 117.1 23.5334 117.196 23.9334 117.196ZM34.9258 111.808C35.6138 111.808 36.1698 112.024 36.5938 112.456C37.0258 112.888 37.2418 113.56 37.2418 114.472V118H36.2578V114.532C36.2578 113.94 36.1298 113.488 35.8738 113.176C35.6258 112.864 35.2698 112.708 34.8058 112.708C34.2938 112.708 33.8898 112.888 33.5938 113.248C33.3058 113.608 33.1618 114.1 33.1618 114.724V118H32.1778V114.532C32.1778 113.94 32.0498 113.488 31.7938 113.176C31.5378 112.864 31.1738 112.708 30.7018 112.708C30.2058 112.708 29.8098 112.9 29.5138 113.284C29.2258 113.66 29.0818 114.156 29.0818 114.772V118H28.0978V111.88H28.9498L29.0818 112.72C29.5218 112.112 30.1178 111.808 30.8698 111.808C31.3098 111.808 31.6978 111.908 32.0338 112.108C32.3778 112.3 32.6338 112.588 32.8018 112.972C33.2418 112.196 33.9498 111.808 34.9258 111.808ZM41.6447 109.6H42.6287V118H41.6447V109.6ZM49.7007 117.1V118H49.1607C48.7687 118 48.4887 117.92 48.3207 117.76C48.1527 117.6 48.0647 117.364 48.0567 117.052C47.5847 117.732 46.9007 118.072 46.0047 118.072C45.3247 118.072 44.7767 117.912 44.3607 117.592C43.9527 117.272 43.7487 116.836 43.7487 116.284C43.7487 115.668 43.9567 115.196 44.3727 114.868C44.7967 114.54 45.4087 114.376 46.2087 114.376H48.0087V113.956C48.0087 113.556 47.8727 113.244 47.6007 113.02C47.3367 112.796 46.9647 112.684 46.4847 112.684C46.0607 112.684 45.7087 112.78 45.4287 112.972C45.1567 113.156 44.9887 113.404 44.9247 113.716H43.9407C44.0127 113.116 44.2767 112.648 44.7327 112.312C45.1967 111.976 45.7967 111.808 46.5327 111.808C47.3167 111.808 47.9207 112 48.3447 112.384C48.7767 112.76 48.9927 113.304 48.9927 114.016V116.656C48.9927 116.952 49.1287 117.1 49.4007 117.1H49.7007ZM48.0087 115.204H46.1127C45.2007 115.204 44.7447 115.544 44.7447 116.224C44.7447 116.528 44.8647 116.772 45.1047 116.956C45.3447 117.14 45.6687 117.232 46.0767 117.232C46.6767 117.232 47.1487 117.076 47.4927 116.764C47.8367 116.444 48.0087 116.024 48.0087 115.504V115.204ZM51.2252 115.984C51.2412 116.352 51.4012 116.652 51.7052 116.884C52.0172 117.116 52.4172 117.232 52.9052 117.232C53.3372 117.232 53.6852 117.148 53.9492 116.98C54.2212 116.804 54.3572 116.576 54.3572 116.296C54.3572 116.056 54.2932 115.872 54.1652 115.744C54.0372 115.616 53.8692 115.528 53.6612 115.48C53.4612 115.432 53.1732 115.384 52.7972 115.336C52.2692 115.272 51.8372 115.188 51.5012 115.084C51.1652 114.98 50.8932 114.816 50.6852 114.592C50.4772 114.36 50.3732 114.044 50.3732 113.644C50.3732 113.284 50.4732 112.964 50.6732 112.684C50.8812 112.404 51.1612 112.188 51.5132 112.036C51.8652 111.876 52.2612 111.796 52.7012 111.796C53.4212 111.796 54.0052 111.964 54.4532 112.3C54.9092 112.636 55.1612 113.116 55.2092 113.74H54.2252C54.1852 113.42 54.0292 113.156 53.7572 112.948C53.4852 112.74 53.1452 112.636 52.7372 112.636C52.3212 112.636 51.9852 112.724 51.7292 112.9C51.4732 113.068 51.3452 113.292 51.3452 113.572C51.3452 113.78 51.4052 113.94 51.5252 114.052C51.6452 114.164 51.7972 114.24 51.9812 114.28C52.1732 114.32 52.4612 114.364 52.8452 114.412C53.3812 114.476 53.8212 114.564 54.1652 114.676C54.5172 114.788 54.7972 114.968 55.0052 115.216C55.2212 115.464 55.3292 115.8 55.3292 116.224C55.3292 116.592 55.2212 116.916 55.0052 117.196C54.7892 117.476 54.4972 117.692 54.1292 117.844C53.7612 117.996 53.3532 118.072 52.9052 118.072C52.1052 118.072 51.4612 117.888 50.9732 117.52C50.4932 117.152 50.2492 116.64 50.2412 115.984H51.2252ZM56.8534 112.78H55.7494V111.88H56.8534V110.164H57.8374V111.88H59.3854V112.78H57.8374V116.392C57.8374 116.648 57.8854 116.832 57.9814 116.944C58.0854 117.048 58.2614 117.1 58.5094 117.1H59.5774V118H58.4494C57.8734 118 57.4614 117.872 57.2134 117.616C56.9734 117.36 56.8534 116.956 56.8534 116.404V112.78ZM64.1861 115.984C64.2021 116.352 64.3621 116.652 64.6661 116.884C64.9781 117.116 65.3781 117.232 65.8661 117.232C66.2981 117.232 66.6461 117.148 66.9101 116.98C67.1821 116.804 67.3181 116.576 67.3181 116.296C67.3181 116.056 67.2541 115.872 67.1261 115.744C66.9981 115.616 66.8301 115.528 66.6221 115.48C66.4221 115.432 66.1341 115.384 65.7581 115.336C65.2301 115.272 64.7981 115.188 64.4621 115.084C64.1261 114.98 63.8541 114.816 63.6461 114.592C63.4381 114.36 63.3341 114.044 63.3341 113.644C63.3341 113.284 63.4341 112.964 63.6341 112.684C63.8421 112.404 64.1221 112.188 64.4741 112.036C64.8261 111.876 65.2221 111.796 65.6621 111.796C66.3821 111.796 66.9661 111.964 67.4141 112.3C67.8701 112.636 68.1221 113.116 68.1701 113.74H67.1861C67.1461 113.42 66.9901 113.156 66.7181 112.948C66.4461 112.74 66.1061 112.636 65.6981 112.636C65.2821 112.636 64.9461 112.724 64.6901 112.9C64.4341 113.068 64.3061 113.292 64.3061 113.572C64.3061 113.78 64.3661 113.94 64.4861 114.052C64.6061 114.164 64.7581 114.24 64.9421 114.28C65.1341 114.32 65.4221 114.364 65.8061 114.412C66.3421 114.476 66.7821 114.564 67.1261 114.676C67.4781 114.788 67.7581 114.968 67.9661 115.216C68.1821 115.464 68.2901 115.8 68.2901 116.224C68.2901 116.592 68.1821 116.916 67.9661 117.196C67.7501 117.476 67.4581 117.692 67.0901 117.844C66.7221 117.996 66.3141 118.072 65.8661 118.072C65.0661 118.072 64.4221 117.888 63.9341 117.52C63.4541 117.152 63.2101 116.64 63.2021 115.984H64.1861ZM74.8664 115.888C74.7384 116.568 74.4384 117.104 73.9664 117.496C73.4944 117.88 72.8944 118.072 72.1664 118.072C71.5744 118.072 71.0544 117.94 70.6064 117.676C70.1584 117.412 69.8104 117.044 69.5624 116.572C69.3144 116.092 69.1904 115.544 69.1904 114.928C69.1904 114.312 69.3144 113.768 69.5624 113.296C69.8184 112.824 70.1744 112.46 70.6304 112.204C71.0864 111.94 71.6104 111.808 72.2024 111.808C72.9224 111.808 73.5144 112 73.9784 112.384C74.4504 112.768 74.7464 113.296 74.8664 113.968H73.8704C73.7744 113.576 73.5744 113.264 73.2704 113.032C72.9664 112.8 72.5984 112.684 72.1664 112.684C71.5824 112.684 71.1064 112.892 70.7384 113.308C70.3784 113.724 70.1984 114.264 70.1984 114.928C70.1984 115.6 70.3784 116.148 70.7384 116.572C71.1064 116.988 71.5824 117.196 72.1664 117.196C72.6144 117.196 72.9904 117.08 73.2944 116.848C73.5984 116.616 73.7944 116.296 73.8824 115.888H74.8664ZM81.728 117.1V118H81.188C80.796 118 80.516 117.92 80.348 117.76C80.18 117.6 80.092 117.364 80.084 117.052C79.612 117.732 78.928 118.072 78.032 118.072C77.352 118.072 76.804 117.912 76.388 117.592C75.98 117.272 75.776 116.836 75.776 116.284C75.776 115.668 75.984 115.196 76.4 114.868C76.824 114.54 77.436 114.376 78.236 114.376H80.036V113.956C80.036 113.556 79.9 113.244 79.628 113.02C79.364 112.796 78.992 112.684 78.512 112.684C78.088 112.684 77.736 112.78 77.456 112.972C77.184 113.156 77.016 113.404 76.952 113.716H75.968C76.04 113.116 76.304 112.648 76.76 112.312C77.224 111.976 77.824 111.808 78.56 111.808C79.344 111.808 79.948 112 80.372 112.384C80.804 112.76 81.02 113.304 81.02 114.016V116.656C81.02 116.952 81.156 117.1 81.428 117.1H81.728ZM80.036 115.204H78.14C77.228 115.204 76.772 115.544 76.772 116.224C76.772 116.528 76.892 116.772 77.132 116.956C77.372 117.14 77.696 117.232 78.104 117.232C78.704 117.232 79.176 117.076 79.52 116.764C79.864 116.444 80.036 116.024 80.036 115.504V115.204ZM85.4845 111.808C86.2285 111.808 86.8245 112.032 87.2725 112.48C87.7285 112.928 87.9565 113.632 87.9565 114.592V118H86.9725V114.652C86.9725 114.02 86.8285 113.54 86.5405 113.212C86.2605 112.876 85.8525 112.708 85.3165 112.708C84.7405 112.708 84.2885 112.908 83.9605 113.308C83.6325 113.708 83.4685 114.252 83.4685 114.94V118H82.4845V111.88H83.3365L83.4685 112.708C83.9325 112.108 84.6045 111.808 85.4845 111.808Z" fill="url(#paint8_linear_13_507)"/>
<path d="M29.35 72.4C31.55 72.4 33.5167 72.9 35.25 73.9C37.0167 74.9 38.4 76.3 39.4 78.1C40.4 79.9 40.9 81.95 40.9 84.25C40.9 86.7833 40.3333 88.95 39.2 90.75C38.0667 92.55 36.5333 93.9167 34.6 94.85C32.6667 95.7833 30.5333 96.25 28.2 96.25C25.6333 96.25 23.3833 95.75 21.45 94.75C19.55 93.75 18.0667 92.4 17 90.7C15.9333 88.9667 15.3333 87.05 15.2 84.95H20.7C20.9 86.85 21.6833 88.4333 23.05 89.7C24.4167 90.9667 26.1333 91.6 28.2 91.6C29.4333 91.6 30.5833 91.3167 31.65 90.75C32.75 90.1833 33.6333 89.35 34.3 88.25C34.9667 87.15 35.3 85.8167 35.3 84.25C35.3 82.1167 34.65 80.3667 33.35 79C32.0833 77.6333 30.3833 76.95 28.25 76.95C26.85 76.95 25.4667 77.2667 24.1 77.9C22.7333 78.5333 21.7667 79.65 21.2 81.25L15.85 81.15L16.9 61H38.7V65.85H22L21.35 75.6C22.35 74.5 23.55 73.7 24.95 73.2C26.35 72.6667 27.8167 72.4 29.35 72.4ZM63.1398 77.9C65.3065 78.3333 67.1065 79.2667 68.5398 80.7C70.0065 82.1 70.7398 83.95 70.7398 86.25C70.7398 88.25 70.1898 90.0167 69.0898 91.55C68.0232 93.05 66.4898 94.2167 64.4898 95.05C62.5232 95.8833 60.2232 96.3 57.5898 96.3C53.5898 96.3 50.4065 95.2833 48.0398 93.25C45.7065 91.1833 44.5398 88.3667 44.5398 84.8H50.0898C50.1232 86.9333 50.8565 88.6167 52.2898 89.85C53.7232 91.0833 55.6065 91.7 57.9398 91.7C60.0065 91.7 61.7065 91.1667 63.0398 90.1C64.4065 89.0333 65.0898 87.6167 65.0898 85.85C65.0898 84.1833 64.4232 82.8833 63.0898 81.95C61.7898 80.9833 59.9232 80.5 57.4898 80.5H54.2898V75.9H57.1398C59.4398 75.9 61.1898 75.4 62.3898 74.4C63.6232 73.4 64.2398 72.0667 64.2398 70.4C64.2398 68.8333 63.6398 67.6 62.4398 66.7C61.2398 65.7667 59.6898 65.3 57.7898 65.3C55.7898 65.3 54.1398 65.8333 52.8398 66.9C51.5732 67.9333 50.9232 69.35 50.8898 71.15H45.4398C45.4732 67.9167 46.5898 65.3667 48.7898 63.5C50.9898 61.6333 53.9232 60.7 57.5898 60.7C60.1232 60.7 62.3065 61.0833 64.1398 61.85C66.0065 62.6167 67.4232 63.7167 68.3898 65.15C69.3898 66.55 69.8898 68.1667 69.8898 70C69.8898 72.1 69.2732 73.8333 68.0398 75.2C66.8398 76.5333 65.2065 77.4333 63.1398 77.9Z" fill="url(#paint9_linear_13_507)"/>
</g>
<defs>
<filter id="filter1_fn_13_507" x="36.3" y="32.6549" width="274.4" height="270.858" filterUnits="userSpaceOnUse" color-interpolation-filters="sRGB">
<feFlood flood-opacity="0" result="BackgroundImageFix"/>
<feBlend mode="normal" in="SourceGraphic" in2="BackgroundImageFix" result="shape"/>
<feGaussianBlur stdDeviation="22.85" result="effect1_foregroundBlur_13_507"/>
<feTurbulence type="fractalNoise" baseFrequency="10 10" stitchTiles="stitch" numOctaves="3" result="noise" seed="1609" />
<feColorMatrix in="noise" type="luminanceToAlpha" result="alphaNoise" />
<feComponentTransfer in="alphaNoise" result="coloredNoise1">
<feFuncA type="discrete" tableValues="1 1 1 1 1 1 1 1 1 1 1 1 1 1 1 1 1 1 1 1 1 1 1 1 1 1 1 1 1 1 1 1 1 1 1 1 1 1 1 1 1 1 1 1 1 1 1 1 1 1 1 0 0 0 0 0 0 0 0 0 0 0 0 0 0 0 0 0 0 0 0 0 0 0 0 0 0 0 0 0 0 0 0 0 0 0 0 0 0 0 0 0 0 0 0 0 0 0 0 0 "/>
</feComponentTransfer>
<feComposite operator="in" in2="effect1_foregroundBlur_13_507" in="coloredNoise1" result="noise1Clipped" />
<feFlood flood-color="rgba(0, 0, 0, 0.25)" result="color1Flood" />
<feComposite operator="in" in2="noise1Clipped" in="color1Flood" result="color1" />
<feMerge result="effect2_noise_13_507">
<feMergeNode in="effect1_foregroundBlur_13_507" />
<feMergeNode in="color1" />
</feMerge>
</filter>
<filter id="filter3_d_13_507" x="149.234" y="26.2527" width="22.5312" height="21.4945" filterUnits="userSpaceOnUse" color-interpolation-filters="sRGB">
<feFlood flood-opacity="0" result="BackgroundImageFix"/>
<feColorMatrix in="SourceAlpha" type="matrix" values="0 0 0 0 0 0 0 0 0 0 0 0 0 0 0 0 0 0 127 0" result="hardAlpha"/>
<feOffset dy="4"/>
<feGaussianBlur stdDeviation="2"/>
<feComposite in2="hardAlpha" operator="out"/>
<feColorMatrix type="matrix" values="0 0 0 0 0 0 0 0 0 0 0 0 0 0 0 0 0 0 0.25 0"/>
<feBlend mode="normal" in2="BackgroundImageFix" result="effect1_dropShadow_13_507"/>
<feBlend mode="normal" in="SourceGraphic" in2="effect1_dropShadow_13_507" result="shape"/>
</filter>
<linearGradient id="paint0_linear_13_507" x1="96.6667" y1="-5.01887" x2="96.6667" y2="133" gradientUnits="userSpaceOnUse">
<stop stop-color="white" stop-opacity="0"/>
<stop offset="1" stop-color="#999999"/>
</linearGradient>
<linearGradient id="paint1_linear_13_507" x1="119" y1="84" x2="186.5" y2="127.5" gradientUnits="userSpaceOnUse">
<stop offset="0.192308" stop-color="white"/>
<stop offset="0.394231" stop-color="#FD090B"/>
<stop offset="1" stop-color="#290000"/>
</linearGradient>
<linearGradient id="paint2_linear_13_507" x1="160.5" y1="13.6415" x2="160.5" y2="51" gradientUnits="userSpaceOnUse">
<stop stop-color="white" stop-opacity="0"/>
<stop offset="1" stop-color="#999999"/>
</linearGradient>
<linearGradient id="paint3_linear_13_507" x1="160.5" y1="13.6415" x2="160.5" y2="51" gradientUnits="userSpaceOnUse">
<stop stop-color="white" stop-opacity="0"/>
<stop offset="1" stop-color="#999999"/>
</linearGradient>
<linearGradient id="paint4_linear_13_507" x1="160.5" y1="26.2527" x2="160.5" y2="39.7472" gradientUnits="userSpaceOnUse">
<stop stop-color="#FAFAFA"/>
<stop offset="1" stop-color="#949494"/>
</linearGradient>
<linearGradient id="paint5_linear_13_507" x1="160" y1="101.17" x2="160" y2="124" gradientUnits="userSpaceOnUse">
<stop stop-color="white" stop-opacity="0"/>
<stop offset="1" stop-color="#999999"/>
</linearGradient>
<linearGradient id="paint6_linear_13_507" x1="160" y1="101.17" x2="160" y2="124" gradientUnits="userSpaceOnUse">
<stop stop-color="white" stop-opacity="0"/>
<stop offset="1" stop-color="#999999"/>
</linearGradient>
<linearGradient id="paint7_linear_13_507" x1="73.5" y1="15" x2="73.5" y2="51" gradientUnits="userSpaceOnUse">
<stop stop-color="#FAFAFA"/>
<stop offset="1" stop-color="#949494"/>
</linearGradient>
<linearGradient id="paint8_linear_13_507" x1="73.5" y1="95.7778" x2="73.5" y2="123" gradientUnits="userSpaceOnUse">
<stop stop-color="white" stop-opacity="0"/>
<stop offset="1" stop-color="#999999"/>
</linearGradient>
<linearGradient id="paint9_linear_13_507" x1="80.5" y1="46" x2="80.5" y2="107" gradientUnits="userSpaceOnUse">
<stop stop-color="white"/>
<stop offset="1" stop-color="#888888"/>
</linearGradient>
<clipPath id="clip0_13_507">
<rect width="193.333" height="133" rx="20" fill="white"/>
</clipPath>
</defs>
</svg>
