<svg width="35" height="35" viewBox="0 0 35 35" fill="none" xmlns="http://www.w3.org/2000/svg">
<g filter="url(#filter0_n_12_503)">
<rect width="35" height="35" rx="17.5" fill="url(#paint0_linear_12_503)" fill-opacity="0.3"/>
</g>
<path d="M23.3333 10C24.2538 10 25 10.736 25 11.6438L25 14.4499C25 15.3578 24.2538 16.0938 23.3333 16.0938H20.8333C19.9129 16.0938 19.1667 15.3578 19.1667 14.4499L19.1667 11.6438C19.1667 10.736 19.9129 10 20.8333 10L23.3333 10Z" stroke="url(#paint1_linear_12_503)" stroke-width="1.5" stroke-linecap="round" stroke-linejoin="round"/>
<path d="M11.6667 10C10.7462 10 10 10.736 10 11.6438L10 14.4499C10 15.3578 10.7462 16.0938 11.6667 16.0938H14.1667C15.0871 16.0938 15.8333 15.3578 15.8333 14.4499L15.8333 11.6438C15.8333 10.736 15.0871 10 14.1667 10L11.6667 10Z" stroke="url(#paint2_linear_12_503)" stroke-width="1.5" stroke-linecap="round" stroke-linejoin="round"/>
<path d="M23.3333 18.9063C24.2538 18.9063 25 19.6422 25 20.5501V23.3562C25 24.264 24.2538 25 23.3333 25H20.8333C19.9129 25 19.1667 24.264 19.1667 23.3562L19.1667 20.5501C19.1667 19.6422 19.9129 18.9063 20.8333 18.9063H23.3333Z" stroke="url(#paint3_linear_12_503)" stroke-width="1.5" stroke-linecap="round" stroke-linejoin="round"/>
<path d="M11.6667 18.9063C10.7462 18.9063 10 19.6422 10 20.5501L10 23.3562C10 24.264 10.7462 25 11.6667 25H14.1667C15.0871 25 15.8333 24.264 15.8333 23.3562L15.8333 20.5501C15.8333 19.6422 15.0871 18.9063 14.1667 18.9063H11.6667Z" stroke="url(#paint4_linear_12_503)" stroke-width="1.5" stroke-linecap="round" stroke-linejoin="round"/>
<defs>
<filter id="filter0_n_12_503" x="0" y="0" width="35" height="35" filterUnits="userSpaceOnUse" color-interpolation-filters="sRGB">
<feFlood flood-opacity="0" result="BackgroundImageFix"/>
<feBlend mode="normal" in="SourceGraphic" in2="BackgroundImageFix" result="shape"/>
<feTurbulence type="fractalNoise" baseFrequency="5 5" stitchTiles="stitch" numOctaves="3" result="noise" seed="3454" />
<feColorMatrix in="noise" type="luminanceToAlpha" result="alphaNoise" />
<feComponentTransfer in="alphaNoise" result="coloredNoise1">
<feFuncA type="discrete" tableValues="1 1 1 1 1 1 1 1 1 1 1 1 1 1 1 1 1 1 1 1 1 1 1 1 1 1 1 1 1 1 1 1 1 1 1 1 1 1 1 1 1 1 1 1 1 1 1 1 1 1 1 0 0 0 0 0 0 0 0 0 0 0 0 0 0 0 0 0 0 0 0 0 0 0 0 0 0 0 0 0 0 0 0 0 0 0 0 0 0 0 0 0 0 0 0 0 0 0 0 0 "/>
</feComponentTransfer>
<feComposite operator="in" in2="shape" in="coloredNoise1" result="noise1Clipped" />
<feFlood flood-color="rgba(0, 0, 0, 0.25)" result="color1Flood" />
<feComposite operator="in" in2="noise1Clipped" in="color1Flood" result="color1" />
<feMerge result="effect1_noise_12_503">
<feMergeNode in="shape" />
<feMergeNode in="color1" />
</feMerge>
</filter>
<linearGradient id="paint0_linear_12_503" x1="17.5" y1="35" x2="17.5" y2="-1.32076" gradientUnits="userSpaceOnUse">
<stop stop-color="white" stop-opacity="0"/>
<stop offset="1" stop-color="#999999"/>
</linearGradient>
<linearGradient id="paint1_linear_12_503" x1="17.5" y1="10" x2="17.5" y2="25" gradientUnits="userSpaceOnUse">
<stop stop-color="white"/>
<stop offset="1" stop-color="#888888"/>
</linearGradient>
<linearGradient id="paint2_linear_12_503" x1="17.5" y1="10" x2="17.5" y2="25" gradientUnits="userSpaceOnUse">
<stop stop-color="white"/>
<stop offset="1" stop-color="#888888"/>
</linearGradient>
<linearGradient id="paint3_linear_12_503" x1="17.5" y1="10" x2="17.5" y2="25" gradientUnits="userSpaceOnUse">
<stop stop-color="white"/>
<stop offset="1" stop-color="#888888"/>
</linearGradient>
<linearGradient id="paint4_linear_12_503" x1="17.5" y1="10" x2="17.5" y2="25" gradientUnits="userSpaceOnUse">
<stop stop-color="white"/>
<stop offset="1" stop-color="#888888"/>
</linearGradient>
</defs>
</svg>
