<svg width="25" height="26" viewBox="0 0 25 26" fill="none" xmlns="http://www.w3.org/2000/svg">
<path d="M9.04169 3.45655L9.93461 2.1092C10.4971 1.26038 11.4477 0.75 12.466 0.75C13.4806 0.75 14.4282 1.25676 14.9916 2.10064L15.8687 3.41439M9.04169 3.45655C8.64529 4.05037 7.98638 4.34134 7.28701 4.28947M9.04169 3.45655C8.64336 4.04895 7.98638 4.34376 7.28701 4.28947M7.28701 4.28947L5.82109 4.19284C4.76482 4.12321 3.74254 4.58075 3.09075 5.41484C2.44597 6.23996 2.24598 7.32846 2.55536 8.32889L3.00412 9.78005M3.00412 9.78005C3.10575 10.1261 3.11875 10.4967 3.04602 10.8468M3.00412 9.78005C3.10719 10.1254 3.11972 10.4954 3.04554 10.8504M3.04602 10.8468C2.97233 11.1927 2.81435 11.5194 2.57978 11.7839M3.04602 10.8468L3.04554 10.8504M2.57978 11.7839L1.55155 12.9451C0.868673 13.7163 0.600312 14.7698 0.83103 15.7737C1.06854 16.8071 1.80415 17.6549 2.79377 18.0357L4.11867 18.5456C4.44427 18.6779 4.72556 18.893 4.93845 19.1638M2.57978 11.7839C2.81579 11.5216 2.97233 11.196 3.04554 10.8504M4.93845 19.1638C5.1499 19.4355 5.29392 19.7634 5.34979 20.1184M4.93845 19.1638C5.15183 19.4355 5.29632 19.7625 5.34979 20.1184M4.93845 19.1638L4.93508 19.1599C4.92111 19.1422 4.90618 19.1236 4.89173 19.1064M5.34979 20.1184L5.59716 21.7139C5.75207 22.7131 6.3864 23.5731 7.29525 24.0161C8.22509 24.4694 9.32014 24.427 10.2121 23.903L11.4808 23.1577M11.4808 23.1577C11.7838 22.979 12.1219 22.8894 12.46 22.889M11.4808 23.1577C11.6007 23.086 11.7264 23.0288 11.8555 22.9859C12.0516 22.9207 12.2558 22.8885 12.46 22.889M12.46 22.889C12.6358 22.8893 12.8116 22.9138 12.9831 22.962C13.1425 23.0068 13.2976 23.0722 13.4445 23.1577M12.46 22.889C12.7996 22.8885 13.1396 22.9781 13.4445 23.1577M13.4445 23.1577L14.8086 23.9331C15.7066 24.4435 16.8002 24.472 17.7236 24.0089C18.6296 23.5546 19.2555 22.6851 19.3989 21.6818L19.616 20.1636M19.616 20.1636C19.6694 19.8066 19.8115 19.4762 20.0225 19.2022M19.616 20.1636C19.6675 19.8058 19.8106 19.4759 20.0225 19.2022M20.0225 19.2022C20.232 18.9309 20.5099 18.7148 20.8336 18.5812M20.0225 19.2022C20.2315 18.9299 20.5085 18.7132 20.8336 18.5812M20.8336 18.5812L22.1816 18.0265C23.1662 17.6213 23.889 16.7585 24.1153 15.7181C24.3342 14.712 24.062 13.6617 23.3819 12.8885L22.346 11.7108M22.346 11.7108C22.1071 11.4453 21.9405 11.1283 21.8595 10.7913M22.346 11.7108C22.2338 11.5868 22.1375 11.4513 22.059 11.3076C21.9694 11.1444 21.9024 10.9707 21.8595 10.7913M21.8595 10.7913C21.7801 10.4567 21.7849 10.1022 21.8856 9.75903L22.346 8.20949C22.6361 7.23308 22.4354 6.17664 21.8074 5.37465C21.1587 4.54629 20.1389 4.09711 19.0899 4.17779L17.6378 4.28947M17.6378 4.28947C17.2901 4.31525 16.9481 4.24569 16.6437 4.09606M17.6378 4.28947C17.2896 4.31674 16.9481 4.24662 16.6437 4.09606M16.6437 4.09606C16.3373 3.94452 16.0686 3.71148 15.8687 3.41439M16.6437 4.09606C16.3369 3.94507 16.0676 3.71265 15.8687 3.41439M3.04554 10.8504L3.04651 10.8451M16.333 12.7627C16.333 15.0007 14.5663 16.8148 12.3873 16.8148C10.2083 16.8148 8.44154 15.0007 8.44154 12.7627C8.44154 10.5248 10.2083 8.71064 12.3873 8.71064C14.5663 8.71064 16.333 10.5248 16.333 12.7627Z" stroke="url(#paint0_linear_12_514)" stroke-width="1.5"/>
<defs>
<linearGradient id="paint0_linear_12_514" x1="12.4634" y1="0.75" x2="12.4634" y2="24.75" gradientUnits="userSpaceOnUse">
<stop stop-color="white"/>
<stop offset="1" stop-color="#999999"/>
</linearGradient>
</defs>
</svg>
