<svg width="25" height="25" viewBox="0 0 25 25" fill="none" xmlns="http://www.w3.org/2000/svg">
<path d="M22.7043 21.0458L18.0666 16.4062C19.4571 14.5941 20.1063 12.321 19.8825 10.0479C19.6587 7.77482 18.5786 5.67197 16.8613 4.16593C15.1441 2.6599 12.9183 1.86346 10.6354 1.93817C8.35256 2.01288 6.18359 2.95315 4.56849 4.56825C2.9534 6.18334 2.01313 8.35232 1.93841 10.6352C1.8637 12.9181 2.66014 15.1439 4.16618 16.8611C5.67221 18.5783 7.77506 19.6584 10.0482 19.8822C12.3213 20.1061 14.5944 19.4569 16.4064 18.0663L21.048 22.7089C21.157 22.8179 21.2864 22.9044 21.4289 22.9634C21.5713 23.0224 21.7239 23.0527 21.8781 23.0527C22.0323 23.0527 22.1849 23.0224 22.3273 22.9634C22.4698 22.9044 22.5992 22.8179 22.7082 22.7089C22.8172 22.5999 22.9037 22.4705 22.9627 22.3281C23.0216 22.1856 23.052 22.033 23.052 21.8788C23.052 21.7247 23.0216 21.572 22.9627 21.4296C22.9037 21.2872 22.8172 21.1578 22.7082 21.0488L22.7043 21.0458ZM4.29705 10.9374C4.29705 9.62404 4.68651 8.34014 5.41619 7.24809C6.14587 6.15605 7.183 5.3049 8.39641 4.80229C9.60983 4.29968 10.945 4.16817 12.2332 4.4244C13.5213 4.68063 14.7046 5.31309 15.6333 6.2418C16.562 7.1705 17.1945 8.35375 17.4507 9.64191C17.7069 10.9301 17.5754 12.2653 17.0728 13.4787C16.5702 14.6921 15.7191 15.7292 14.627 16.4589C13.535 17.1886 12.2511 17.5781 10.9377 17.5781C9.17702 17.5762 7.48901 16.876 6.24404 15.6311C4.99907 14.3861 4.29886 12.6981 4.29705 10.9374Z" fill="url(#paint0_linear_12_1514)"/>
<defs>
<linearGradient id="paint0_linear_12_1514" x1="12.4928" y1="-4.5" x2="12.4928" y2="23.0527" gradientUnits="userSpaceOnUse">
<stop stop-color="white" stop-opacity="0"/>
<stop offset="1" stop-color="#999999"/>
</linearGradient>
</defs>
</svg>
