<svg width="14" height="14" viewBox="0 0 14 14" fill="none" xmlns="http://www.w3.org/2000/svg">
<g clip-path="url(#clip0_0_508)">
<g filter="url(#filter0_d_0_508)">
<path d="M13.4167 8.91667C13.8309 8.91667 14.1667 8.58088 14.1667 8.16667C14.1667 7.75245 13.8309 7.41667 13.4167 7.41667V8.16667V8.91667ZM0.583374 7.41667C0.16916 7.41667 -0.166626 7.75245 -0.166626 8.16667C-0.166626 8.58088 0.16916 8.91667 0.583374 8.91667V8.16667V7.41667ZM2.50004 8.75C2.50004 8.33579 2.16425 8 1.75004 8C1.33583 8 1.00004 8.33579 1.00004 8.75H1.75004H2.50004ZM5.25004 13C5.66425 13 6.00004 12.6642 6.00004 12.25C6.00004 11.8358 5.66425 11.5 5.25004 11.5V12.25V13ZM5.25004 2.5C5.66425 2.5 6.00004 2.16421 6.00004 1.75C6.00004 1.33579 5.66425 1 5.25004 1V1.75V2.5ZM1.00004 5.25C1.00004 5.66421 1.33583 6 1.75004 6C2.16425 6 2.50004 5.66421 2.50004 5.25H1.75004H1.00004ZM11.5 5.25C11.5 5.66421 11.8358 6 12.25 6C12.6643 6 13 5.66421 13 5.25H12.25H11.5ZM8.75004 1C8.33583 1 8.00004 1.33579 8.00004 1.75C8.00004 2.16421 8.33583 2.5 8.75004 2.5V1.75V1ZM8.75004 11.5C8.33583 11.5 8.00004 11.8358 8.00004 12.25C8.00004 12.6642 8.33583 13 8.75004 13V12.25V11.5ZM13 8.75C13 8.33579 12.6643 8 12.25 8C11.8358 8 11.5 8.33579 11.5 8.75H12.25H13ZM13.4167 8.16667V7.41667H0.583374V8.16667V8.91667H13.4167V8.16667ZM1.75004 9.33333H2.50004V8.75H1.75004H1.00004V9.33333H1.75004ZM5.25004 12.25V11.5H4.66671V12.25V13H5.25004V12.25ZM1.75004 9.33333H1.00004C1.00004 11.3584 2.64166 13 4.66671 13V12.25V11.5C3.47009 11.5 2.50004 10.53 2.50004 9.33333H1.75004ZM4.66671 1.75V2.5H5.25004V1.75V1H4.66671V1.75ZM1.75004 5.25H2.50004V4.66667H1.75004H1.00004V5.25H1.75004ZM4.66671 1.75V1C2.64166 1 1.00004 2.64162 1.00004 4.66667H1.75004H2.50004C2.50004 3.47005 3.47009 2.5 4.66671 2.5V1.75ZM12.25 4.66667H11.5V5.25H12.25H13V4.66667H12.25ZM8.75004 1.75V2.5H9.33337V1.75V1H8.75004V1.75ZM12.25 4.66667H13C13 2.64162 11.3584 1 9.33337 1V1.75V2.5C10.53 2.5 11.5 3.47005 11.5 4.66667H12.25ZM9.33337 12.25V11.5H8.75004V12.25V13H9.33337V12.25ZM12.25 8.75H11.5V9.33333H12.25H13V8.75H12.25ZM9.33337 12.25V13C11.3584 13 13 11.3584 13 9.33333H12.25H11.5C11.5 10.53 10.53 11.5 9.33337 11.5V12.25Z" fill="url(#paint0_linear_0_508)"/>
</g>
</g>
<defs>
<filter id="filter0_d_0_508" x="-4.16663" y="1" width="22.3334" height="20" filterUnits="userSpaceOnUse" color-interpolation-filters="sRGB">
<feFlood flood-opacity="0" result="BackgroundImageFix"/>
<feColorMatrix in="SourceAlpha" type="matrix" values="0 0 0 0 0 0 0 0 0 0 0 0 0 0 0 0 0 0 127 0" result="hardAlpha"/>
<feOffset dy="4"/>
<feGaussianBlur stdDeviation="2"/>
<feComposite in2="hardAlpha" operator="out"/>
<feColorMatrix type="matrix" values="0 0 0 0 0 0 0 0 0 0 0 0 0 0 0 0 0 0 0.25 0"/>
<feBlend mode="normal" in2="BackgroundImageFix" result="effect1_dropShadow_0_508"/>
<feBlend mode="normal" in="SourceGraphic" in2="effect1_dropShadow_0_508" result="shape"/>
</filter>
<linearGradient id="paint0_linear_0_508" x1="7.00004" y1="1.75" x2="7.00004" y2="12.25" gradientUnits="userSpaceOnUse">
<stop stop-color="#FAFAFA"/>
<stop offset="1" stop-color="#949494"/>
</linearGradient>
<clipPath id="clip0_0_508">
<rect width="14" height="14" fill="white"/>
</clipPath>
</defs>
</svg>
