<svg width="24" height="24" viewBox="0 0 24 24" fill="none" xmlns="http://www.w3.org/2000/svg">
<path d="M18.8889 16L18.0122 15.5189L18.8889 16ZM5.11091 16L4.23422 16.4811V16.4811L5.11091 16ZM3.02511 8.20867L2.02638 8.25909L3.02511 8.20867ZM17.2549 18.2795L18.011 18.9339H18.011L17.2549 18.2795ZM6.74493 18.2795L7.50104 17.625V17.625L6.74493 18.2795ZM20.9828 7.6369L21.9821 7.67518L20.9828 7.6369ZM8.99984 11C8.44756 11 7.99984 11.4477 7.99984 12C7.99984 12.5523 8.44756 13 8.99984 13V12V11ZM14.9998 13C15.5521 13 15.9998 12.5523 15.9998 12C15.9998 11.4477 15.5521 11 14.9998 11V12V13ZM10.9998 15C10.9998 15.5523 11.4476 16 11.9998 16C12.5521 16 12.9998 15.5523 12.9998 15H11.9998H10.9998ZM12.9998 9C12.9998 8.44772 12.5521 8 11.9998 8C11.4476 8 10.9998 8.44772 10.9998 9H11.9998H12.9998ZM20.9828 7.6369L19.9835 7.59862C19.9051 9.64731 19.5053 12.7979 18.0122 15.5189L18.8889 16L19.7656 16.4811C21.4761 13.3638 21.8987 9.85229 21.9821 7.67518L20.9828 7.6369ZM18.8889 16L18.0122 15.5189C17.6345 16.2073 17.1077 16.9215 16.4988 17.625L17.2549 18.2795L18.011 18.9339C18.6769 18.1646 19.2981 17.3331 19.7656 16.4811L18.8889 16ZM6.74493 18.2795L7.50104 17.625C6.89207 16.9215 6.36531 16.2073 5.9876 15.5189L5.11091 16L4.23422 16.4811C4.70174 17.3331 5.32293 18.1646 5.98881 18.9339L6.74493 18.2795ZM5.11091 16L5.9876 15.5189C4.53422 12.8703 4.11828 10.0289 4.02384 8.15825L3.02511 8.20867L2.02638 8.25909C2.12892 10.2901 2.57996 13.4663 4.23422 16.4811L5.11091 16ZM5.17053 6.08333V7.08333H5.47939V6.08333V5.08333H5.17053V6.08333ZM18.2287 5.5V6.5H18.8181V5.5V4.5H18.2287V5.5ZM16.4787 3.75H15.4787C15.4787 5.26878 16.71 6.5 18.2287 6.5V5.5V4.5C17.8145 4.5 17.4787 4.16421 17.4787 3.75H16.4787ZM5.47939 6.08333V7.08333C7.15926 7.08333 8.52106 5.72153 8.52106 4.04167H7.52106H6.52106C6.52106 4.61696 6.05469 5.08333 5.47939 5.08333V6.08333ZM9.56273 2V1C7.88286 1 6.52106 2.3618 6.52106 4.04167H7.52106H8.52106C8.52106 3.46637 8.98743 3 9.56273 3V2ZM3.02511 8.20867L4.02384 8.15825C3.99572 7.60129 4.45304 7.08333 5.17053 7.08333V6.08333V5.08333C3.47182 5.08333 1.93267 6.40293 2.02638 8.25909L3.02511 8.20867ZM17.2549 18.2795L16.4988 17.625C15.4819 18.7998 14.82 19.556 14.1508 20.0462C13.5477 20.4881 12.9375 20.7107 11.9999 20.7107V21.7107V22.7107C13.3474 22.7107 14.3748 22.3615 15.3328 21.6596C16.2249 21.006 17.0479 20.0466 18.011 18.9339L17.2549 18.2795ZM6.74493 18.2795L5.98881 18.9339C6.95189 20.0466 7.77486 21.006 8.66699 21.6596C9.62503 22.3615 10.6524 22.7107 11.9999 22.7107V21.7107V20.7107C11.0623 20.7107 10.4521 20.4881 9.84894 20.0462C9.17984 19.556 8.51788 18.7998 7.50104 17.625L6.74493 18.2795ZM14.7287 2V3C15.1429 3 15.4787 3.33579 15.4787 3.75H16.4787H17.4787C17.4787 2.23122 16.2475 1 14.7287 1V2ZM20.9828 7.6369L21.9821 7.67518C22.0527 5.83114 20.5274 4.5 18.8181 4.5V5.5V6.5C19.5312 6.5 20.0056 7.02195 19.9835 7.59862L20.9828 7.6369ZM8.99984 12V13H14.9998V12V11H8.99984V12ZM9.56273 2V3H14.7287V2V1H9.56273V2ZM11.9998 15H12.9998V12H11.9998H10.9998V15H11.9998ZM11.9998 12H12.9998V9H11.9998H10.9998V12H11.9998Z" fill="url(#paint0_linear_27_773)"/>
<defs>
<linearGradient id="paint0_linear_27_773" x1="12.0034" y1="2" x2="12.0034" y2="21.7107" gradientUnits="userSpaceOnUse">
<stop stop-color="white"/>
<stop offset="1" stop-color="#999999"/>
</linearGradient>
</defs>
</svg>
