<svg width="22" height="23" viewBox="0 0 22 23" fill="none" xmlns="http://www.w3.org/2000/svg">
<g filter="url(#filter0_d_0_486)">
<path d="M10.749 1.75C12.4062 1.75184 13.9952 2.4112 15.167 3.58301C16.2655 4.68151 16.9139 6.14621 16.9922 7.69043L17 8.00098C16.9998 9.23677 16.6329 10.4451 15.9463 11.4727C15.2595 12.5003 14.2835 13.3014 13.1416 13.7744C11.9996 14.2474 10.7426 14.371 9.53027 14.1299C8.31805 13.8887 7.20504 13.2929 6.33105 12.4189C5.45707 11.545 4.86133 10.432 4.62012 9.21973C4.37897 8.00742 4.50261 6.75038 4.97559 5.6084C5.44857 4.46652 6.24974 3.49045 7.27734 2.80371C8.30488 2.11713 9.51323 1.75019 10.749 1.75ZM12.9502 2.6875C11.8996 2.25239 10.7432 2.13851 9.62793 2.36035C8.51264 2.58225 7.48866 3.13048 6.68457 3.93457C5.88048 4.73866 5.33225 5.76264 5.11035 6.87793C4.88851 7.99323 5.00239 9.14959 5.4375 10.2002C5.8727 11.2509 6.61008 12.1494 7.55566 12.7812C8.50119 13.413 9.61287 13.75 10.75 13.75H10.751C12.2752 13.7483 13.7367 13.1422 14.8145 12.0645C15.8922 10.9867 16.4983 9.52517 16.5 8.00098V8C16.5 6.86287 16.163 5.75119 15.5312 4.80566C14.8994 3.86008 14.0009 3.1227 12.9502 2.6875ZM10.75 10.25C10.8826 10.25 11.0097 10.3027 11.1035 10.3965C11.1973 10.4903 11.25 10.6174 11.25 10.75C11.25 10.8487 11.2208 10.9452 11.166 11.0273C11.1111 11.1096 11.0327 11.1741 10.9414 11.2119C10.85 11.2498 10.7493 11.2595 10.6523 11.2402C10.5554 11.2209 10.4664 11.1734 10.3965 11.1035C10.3266 11.0336 10.2791 10.9446 10.2598 10.8477C10.2405 10.7507 10.2502 10.65 10.2881 10.5586C10.3259 10.4673 10.3904 10.3889 10.4727 10.334C10.5548 10.2792 10.6513 10.25 10.75 10.25ZM10.75 4.75C10.8163 4.75 10.8799 4.77636 10.9268 4.82324C10.9736 4.87013 11 4.9337 11 5V8.25C11 8.3163 10.9736 8.37987 10.9268 8.42676C10.8799 8.47364 10.8163 8.5 10.75 8.5C10.6837 8.5 10.6201 8.47364 10.5732 8.42676C10.5264 8.37987 10.5 8.3163 10.5 8.25V5C10.5 4.9337 10.5264 4.87013 10.5732 4.82324C10.6201 4.77636 10.6837 4.75 10.75 4.75Z" stroke="url(#paint0_linear_0_486)" shape-rendering="crispEdges"/>
</g>
<defs>
<filter id="filter0_d_0_486" x="0" y="1.25" width="21.5" height="21.5" filterUnits="userSpaceOnUse" color-interpolation-filters="sRGB">
<feFlood flood-opacity="0" result="BackgroundImageFix"/>
<feColorMatrix in="SourceAlpha" type="matrix" values="0 0 0 0 0 0 0 0 0 0 0 0 0 0 0 0 0 0 127 0" result="hardAlpha"/>
<feOffset dy="4"/>
<feGaussianBlur stdDeviation="2"/>
<feComposite in2="hardAlpha" operator="out"/>
<feColorMatrix type="matrix" values="0 0 0 0 0 0 0 0 0 0 0 0 0 0 0 0 0 0 0.25 0"/>
<feBlend mode="normal" in2="BackgroundImageFix" result="effect1_dropShadow_0_486"/>
<feBlend mode="normal" in="SourceGraphic" in2="effect1_dropShadow_0_486" result="shape"/>
</filter>
<linearGradient id="paint0_linear_0_486" x1="10.75" y1="1.25" x2="10.75" y2="14.75" gradientUnits="userSpaceOnUse">
<stop stop-color="#FAFAFA"/>
<stop offset="1" stop-color="#949494"/>
</linearGradient>
</defs>
</svg>
