<svg width="23" height="24" viewBox="0 0 23 24" fill="none" xmlns="http://www.w3.org/2000/svg">
<g filter="url(#filter0_d_0_475)">
<path d="M11.2422 4.25001C11.4411 4.25001 11.6319 4.32902 11.7726 4.46968C11.9132 4.61033 11.9922 4.80109 11.9922 5.00001V8.25001C11.9922 8.44892 11.9132 8.63968 11.7726 8.78034C11.6319 8.92099 11.4411 9.00001 11.2422 9.00001C11.0433 9.00001 10.8526 8.92099 10.7119 8.78034C10.5713 8.63968 10.4922 8.44892 10.4922 8.25001V5.00001C10.4922 4.80109 10.5713 4.61033 10.7119 4.46968C10.8526 4.32902 11.0433 4.25001 11.2422 4.25001ZM11.2422 9.75001C11.0445 9.75001 10.8511 9.80866 10.6867 9.91854C10.5222 10.0284 10.394 10.1846 10.3184 10.3673C10.2427 10.55 10.2229 10.7511 10.2615 10.9451C10.3 11.1391 10.3953 11.3173 10.5351 11.4571C10.675 11.597 10.8532 11.6922 11.0471 11.7308C11.2411 11.7694 11.4422 11.7496 11.6249 11.6739C11.8076 11.5982 11.9638 11.47 12.0737 11.3056C12.1836 11.1411 12.2422 10.9478 12.2422 10.75C12.2422 10.4848 12.1369 10.2304 11.9493 10.0429C11.7618 9.85536 11.5075 9.75001 11.2422 9.75001ZM18.4922 8.00001C18.4926 8.16381 18.4605 8.32607 18.3979 8.47743C18.3352 8.62878 18.2433 8.76624 18.1272 8.88188L12.1272 14.8856C11.893 15.1186 11.5761 15.2494 11.2457 15.2494C10.9153 15.2494 10.5983 15.1186 10.3641 14.8856L4.36411 8.88188C4.13092 8.64763 4 8.33054 4 8.00001C4 7.66947 4.13092 7.35239 4.36411 7.11813L10.3672 1.11438C10.6015 0.881378 10.9184 0.75058 11.2488 0.75058C11.5792 0.75058 11.8961 0.881378 12.1304 1.11438L18.1341 7.11813C18.2489 7.23433 18.3396 7.37205 18.4011 7.52338C18.4625 7.67471 18.4935 7.83668 18.4922 8.00001ZM16.8872 8.00001L11.2422 2.35438L5.59724 8.00001L11.2422 13.6456L16.8872 8.00001Z" fill="url(#paint0_linear_0_475)"/>
</g>
<defs>
<filter id="filter0_d_0_475" x="0" y="0.75058" width="22.4922" height="22.4989" filterUnits="userSpaceOnUse" color-interpolation-filters="sRGB">
<feFlood flood-opacity="0" result="BackgroundImageFix"/>
<feColorMatrix in="SourceAlpha" type="matrix" values="0 0 0 0 0 0 0 0 0 0 0 0 0 0 0 0 0 0 127 0" result="hardAlpha"/>
<feOffset dy="4"/>
<feGaussianBlur stdDeviation="2"/>
<feComposite in2="hardAlpha" operator="out"/>
<feColorMatrix type="matrix" values="0 0 0 0 0 0 0 0 0 0 0 0 0 0 0 0 0 0 0.25 0"/>
<feBlend mode="normal" in2="BackgroundImageFix" result="effect1_dropShadow_0_475"/>
<feBlend mode="normal" in="SourceGraphic" in2="effect1_dropShadow_0_475" result="shape"/>
</filter>
<linearGradient id="paint0_linear_0_475" x1="11.2461" y1="0.75058" x2="11.2461" y2="15.2494" gradientUnits="userSpaceOnUse">
<stop stop-color="#FAFAFA"/>
<stop offset="1" stop-color="#949494"/>
</linearGradient>
</defs>
</svg>
