<svg width="21" height="21" viewBox="0 0 21 21" fill="none" xmlns="http://www.w3.org/2000/svg">
<g filter="url(#filter0_d_0_462)">
<path d="M16.4837 10.1773L11.7013 1.87195C11.5627 1.63505 11.3646 1.43855 11.1266 1.30199C10.8885 1.16543 10.6189 1.09358 10.3445 1.09358C10.07 1.09358 9.8004 1.16543 9.56236 1.30199C9.32433 1.43855 9.12619 1.63505 8.98767 1.87195L4.20525 10.1773C4.07084 10.4072 4 10.6687 4 10.935C4 11.2013 4.07084 11.4628 4.20525 11.6927C4.34224 11.9308 4.5401 12.1282 4.77853 12.2645C5.01696 12.4009 5.28738 12.4714 5.56205 12.4687H15.1269C15.4014 12.4712 15.6716 12.4006 15.9098 12.2643C16.148 12.1279 16.3457 11.9307 16.4826 11.6927C16.6172 11.4629 16.6882 11.2015 16.6884 10.9352C16.6886 10.6689 16.6179 10.4073 16.4837 10.1773ZM15.3462 11.0359C15.3239 11.0738 15.2919 11.105 15.2534 11.1262C15.2149 11.1474 15.1714 11.1578 15.1274 11.1562H5.56205C5.51813 11.1578 5.47462 11.1474 5.43611 11.1262C5.39761 11.105 5.36554 11.0738 5.3433 11.0359C5.32443 11.0053 5.31444 10.97 5.31444 10.9339C5.31444 10.8979 5.32443 10.8626 5.3433 10.832L10.1257 2.52656C10.1494 2.49011 10.1818 2.46015 10.22 2.43942C10.2582 2.41868 10.301 2.40781 10.3445 2.40781C10.3879 2.40781 10.4307 2.41868 10.4689 2.43942C10.5071 2.46015 10.5395 2.49011 10.5632 2.52656L15.3451 10.832C15.3641 10.8625 15.3743 10.8978 15.3745 10.9338C15.3747 10.9698 15.3649 11.0052 15.3462 11.0359ZM9.68822 7.4375V5.6875C9.68822 5.51345 9.75736 5.34653 9.88043 5.22346C10.0035 5.10039 10.1704 5.03125 10.3445 5.03125C10.5185 5.03125 10.6854 5.10039 10.8085 5.22346C10.9316 5.34653 11.0007 5.51345 11.0007 5.6875V7.4375C11.0007 7.61155 10.9316 7.77847 10.8085 7.90154C10.6854 8.02461 10.5185 8.09375 10.3445 8.09375C10.1704 8.09375 10.0035 8.02461 9.88043 7.90154C9.75736 7.77847 9.68822 7.61155 9.68822 7.4375ZM11.2195 9.625C11.2195 9.79806 11.1682 9.96723 11.072 10.1111C10.9759 10.255 10.8392 10.3672 10.6793 10.4334C10.5194 10.4996 10.3435 10.5169 10.1738 10.4832C10.004 10.4494 9.84812 10.3661 9.72575 10.2437C9.60338 10.1213 9.52004 9.96544 9.48628 9.7957C9.45252 9.62597 9.46985 9.45004 9.53607 9.29015C9.6023 9.13027 9.71445 8.99361 9.85834 8.89746C10.0022 8.80132 10.1714 8.75 10.3445 8.75C10.5765 8.75 10.7991 8.84219 10.9632 9.00628C11.1273 9.17037 11.2195 9.39293 11.2195 9.625Z" fill="url(#paint0_linear_0_462)"/>
<path d="M16.4837 10.1773L11.7013 1.87195C11.5627 1.63505 11.3646 1.43855 11.1266 1.30199C10.8885 1.16543 10.6189 1.09358 10.3445 1.09358C10.07 1.09358 9.8004 1.16543 9.56236 1.30199C9.32433 1.43855 9.12619 1.63505 8.98767 1.87195L4.20525 10.1773C4.07084 10.4072 4 10.6687 4 10.935C4 11.2013 4.07084 11.4628 4.20525 11.6927C4.34224 11.9308 4.5401 12.1282 4.77853 12.2645C5.01696 12.4009 5.28738 12.4714 5.56205 12.4687H15.1269C15.4014 12.4712 15.6716 12.4006 15.9098 12.2643C16.148 12.1279 16.3457 11.9307 16.4826 11.6927C16.6172 11.4629 16.6882 11.2015 16.6884 10.9352C16.6886 10.6689 16.6179 10.4073 16.4837 10.1773ZM15.3462 11.0359C15.3239 11.0738 15.2919 11.105 15.2534 11.1262C15.2149 11.1474 15.1714 11.1578 15.1274 11.1562H5.56205C5.51813 11.1578 5.47462 11.1474 5.43611 11.1262C5.39761 11.105 5.36554 11.0738 5.3433 11.0359C5.32443 11.0053 5.31444 10.97 5.31444 10.9339C5.31444 10.8979 5.32443 10.8626 5.3433 10.832L10.1257 2.52656C10.1494 2.49011 10.1818 2.46015 10.22 2.43942C10.2582 2.41868 10.301 2.40781 10.3445 2.40781C10.3879 2.40781 10.4307 2.41868 10.4689 2.43942C10.5071 2.46015 10.5395 2.49011 10.5632 2.52656L15.3451 10.832C15.3641 10.8625 15.3743 10.8978 15.3745 10.9338C15.3747 10.9698 15.3649 11.0052 15.3462 11.0359ZM9.68822 7.4375V5.6875C9.68822 5.51345 9.75736 5.34653 9.88043 5.22346C10.0035 5.10039 10.1704 5.03125 10.3445 5.03125C10.5185 5.03125 10.6854 5.10039 10.8085 5.22346C10.9316 5.34653 11.0007 5.51345 11.0007 5.6875V7.4375C11.0007 7.61155 10.9316 7.77847 10.8085 7.90154C10.6854 8.02461 10.5185 8.09375 10.3445 8.09375C10.1704 8.09375 10.0035 8.02461 9.88043 7.90154C9.75736 7.77847 9.68822 7.61155 9.68822 7.4375ZM11.2195 9.625C11.2195 9.79806 11.1682 9.96723 11.072 10.1111C10.9759 10.255 10.8392 10.3672 10.6793 10.4334C10.5194 10.4996 10.3435 10.5169 10.1738 10.4832C10.004 10.4494 9.84812 10.3661 9.72575 10.2437C9.60338 10.1213 9.52004 9.96544 9.48628 9.7957C9.45252 9.62597 9.46985 9.45004 9.53607 9.29015C9.6023 9.13027 9.71445 8.99361 9.85834 8.89746C10.0022 8.80132 10.1714 8.75 10.3445 8.75C10.5765 8.75 10.7991 8.84219 10.9632 9.00628C11.1273 9.17037 11.2195 9.39293 11.2195 9.625Z" fill="url(#paint1_linear_0_462)"/>
</g>
<defs>
<filter id="filter0_d_0_462" x="0" y="1.09358" width="20.6884" height="19.3752" filterUnits="userSpaceOnUse" color-interpolation-filters="sRGB">
<feFlood flood-opacity="0" result="BackgroundImageFix"/>
<feColorMatrix in="SourceAlpha" type="matrix" values="0 0 0 0 0 0 0 0 0 0 0 0 0 0 0 0 0 0 127 0" result="hardAlpha"/>
<feOffset dy="4"/>
<feGaussianBlur stdDeviation="2"/>
<feComposite in2="hardAlpha" operator="out"/>
<feColorMatrix type="matrix" values="0 0 0 0 0 0 0 0 0 0 0 0 0 0 0 0 0 0 0.25 0"/>
<feBlend mode="normal" in2="BackgroundImageFix" result="effect1_dropShadow_0_462"/>
<feBlend mode="normal" in="SourceGraphic" in2="effect1_dropShadow_0_462" result="shape"/>
</filter>
<linearGradient id="paint0_linear_0_462" x1="10.3442" y1="1.09358" x2="10.3442" y2="12.4688" gradientUnits="userSpaceOnUse">
<stop stop-color="#D9D9D9"/>
<stop offset="1" stop-color="#737373"/>
</linearGradient>
<linearGradient id="paint1_linear_0_462" x1="10.3442" y1="1.09358" x2="10.3442" y2="12.4688" gradientUnits="userSpaceOnUse">
<stop stop-color="#FAFAFA"/>
<stop offset="1" stop-color="#949494"/>
</linearGradient>
</defs>
</svg>
